<svg xmlns="http://www.w3.org/2000/svg" xmlns:xlink="http://www.w3.org/1999/xlink" viewBox="0 0 358.3 425.81"><defs><style>.cls-1{fill:#3b3e3f;}.cls-2{fill:#fee4a0;}.cls-3{fill:#86bbd8;}.cls-4{fill:#ff9e8f;}.cls-5{fill:#ffc4ad;}.cls-6,.cls-7,.cls-8,.cls-9{fill:none;stroke-miterlimit:10;stroke-width:1.97px;}.cls-6{stroke:#ffa491;}.cls-7{stroke:#ff9d8f;}.cls-8{stroke:#f1fafc;}.cls-9{stroke:#ffc4ad;}.cls-10{fill:#ffc371;}.cls-11{fill:url(#linear-gradient);}.cls-12{fill:#fcb765;}.cls-13{fill:#fff;}.cls-14{fill:#2a2c2d;}.cls-15{fill:#163f59;}.cls-16{fill:#161711;}.cls-17{fill:url(#linear-gradient-2);}.cls-18{fill:url(#linear-gradient-3);}.cls-19{fill:url(#linear-gradient-4);}.cls-20{fill:#3d7aa8;}</style><linearGradient id="linear-gradient" x1="97.61" y1="233.06" x2="221.83" y2="233.06" gradientUnits="userSpaceOnUse"><stop offset="0" stop-color="#fee870"/><stop offset="0.08" stop-color="#fee97c"/><stop offset="0.24" stop-color="#ffec91"/><stop offset="0.43" stop-color="#ffeea0"/><stop offset="0.65" stop-color="#ffefa8"/><stop offset="1" stop-color="#ffefab"/></linearGradient><linearGradient id="linear-gradient-2" x1="57.3" y1="293.7" x2="92.82" y2="293.7" xlink:href="#linear-gradient"/><linearGradient id="linear-gradient-3" x1="189.82" y1="298.46" x2="226.48" y2="298.46" xlink:href="#linear-gradient"/><linearGradient id="linear-gradient-4" x1="62.16" y1="235.85" x2="147.37" y2="235.85" xlink:href="#linear-gradient"/></defs><title>back-end</title><g id="Layer_2" data-name="Layer 2"><g id="_3" data-name="3"><rect class="cls-1" x="64.23" y="0.04" width="293.95" height="165.53"/><rect class="cls-2" x="64.35" width="293.95" height="4.29"/><rect class="cls-3" x="69.55" y="1.98" width="7.07" height="0.41"/><rect class="cls-3" x="78.64" y="1.98" width="7.07" height="0.41"/><rect class="cls-3" x="87.72" y="1.98" width="7.08" height="0.41"/><rect class="cls-3" x="96.81" y="1.98" width="7.08" height="0.41"/><rect class="cls-3" x="105.89" y="1.98" width="7.08" height="0.41"/><rect class="cls-3" x="114.98" y="1.98" width="7.08" height="0.41"/><rect class="cls-3" x="124.06" y="1.98" width="7.08" height="0.41"/><rect class="cls-3" x="133.15" y="1.98" width="7.08" height="0.41"/><rect class="cls-3" x="66.41" y="1.45" width="1.33" height="1.45"/><rect class="cls-4" x="64.35" y="3.82" width="293.95" height="5.13"/><rect class="cls-1" x="338.58" y="4.94" width="18.65" height="3.23"/><rect class="cls-1" x="335.44" y="6.22" width="0.73" height="0.66"/><rect class="cls-1" x="324.1" y="6.22" width="9.82" height="0.67"/><rect class="cls-5" x="70.88" y="5.7" width="1.33" height="1.45"/><rect class="cls-5" x="66.41" y="5.7" width="1.33" height="1.45"/><rect class="cls-5" x="73.8" y="5.7" width="1.33" height="1.45"/><line class="cls-6" x1="101.74" y1="13.29" x2="163.19" y2="13.29"/><line class="cls-7" x1="106.82" y1="19.4" x2="116.99" y2="19.4"/><line class="cls-7" x1="106.82" y1="26.64" x2="116.99" y2="26.64"/><line class="cls-7" x1="106.82" y1="33.88" x2="116.99" y2="33.88"/><line class="cls-6" x1="136.85" y1="20.53" x2="168.04" y2="20.53"/><line class="cls-6" x1="136.85" y1="27.77" x2="168.04" y2="27.77"/><line class="cls-6" x1="136.85" y1="35" x2="168.04" y2="35"/><line class="cls-8" x1="121.38" y1="20.53" x2="128.54" y2="20.53"/><line class="cls-8" x1="121.38" y1="27.77" x2="128.54" y2="27.77"/><line class="cls-8" x1="121.38" y1="35" x2="128.54" y2="35"/><line class="cls-9" x1="131.63" y1="20.53" x2="133.53" y2="20.53"/><line class="cls-9" x1="131.63" y1="27.77" x2="133.53" y2="27.77"/><line class="cls-9" x1="131.63" y1="35" x2="133.53" y2="35"/><line class="cls-9" x1="101.97" y1="20.53" x2="103.88" y2="20.53"/><line class="cls-9" x1="101.97" y1="27.77" x2="103.88" y2="27.77"/><line class="cls-9" x1="101.97" y1="35" x2="103.88" y2="35"/><line class="cls-7" x1="106.82" y1="48.36" x2="122.53" y2="48.36"/><line class="cls-6" x1="144.25" y1="49.48" x2="168.04" y2="49.48"/><line class="cls-8" x1="126.92" y1="49.48" x2="135.93" y2="49.48"/><line class="cls-9" x1="139.02" y1="49.48" x2="140.93" y2="49.48"/><line class="cls-6" x1="168.96" y1="63.96" x2="242.65" y2="63.96"/><line class="cls-8" x1="127.84" y1="63.96" x2="163.19" y2="63.96"/><line class="cls-6" x1="195.76" y1="49.48" x2="219.55" y2="49.48"/><line class="cls-8" x1="174.74" y1="49.48" x2="187.44" y2="49.48"/><line class="cls-9" x1="190.53" y1="49.48" x2="192.44" y2="49.48"/><line class="cls-9" x1="221.95" y1="49.48" x2="223.85" y2="49.48"/><line class="cls-9" x1="101.97" y1="49.48" x2="103.88" y2="49.48"/><line class="cls-7" x1="106.82" y1="77.31" x2="122.53" y2="77.31"/><line class="cls-8" x1="101.97" y1="78.44" x2="103.88" y2="78.44"/><line class="cls-8" x1="125.54" y1="78.44" x2="127.44" y2="78.44"/><line class="cls-7" x1="94.81" y1="106.27" x2="110.52" y2="106.27"/><line class="cls-8" x1="89.96" y1="107.39" x2="91.87" y2="107.39"/><line class="cls-8" x1="113.52" y1="107.39" x2="115.43" y2="107.39"/><line class="cls-9" x1="115.14" y1="71.2" x2="117.05" y2="71.2"/><line class="cls-7" x1="115.14" y1="55.6" x2="124.38" y2="55.6"/><line class="cls-9" x1="127.84" y1="56.72" x2="163.87" y2="56.72"/><line class="cls-6" x1="189.98" y1="20.53" x2="221.17" y2="20.53"/><line class="cls-6" x1="189.98" y1="27.77" x2="221.17" y2="27.77"/><line class="cls-6" x1="189.98" y1="35" x2="221.17" y2="35"/><line class="cls-6" x1="222.79" y1="20.53" x2="277.3" y2="20.53"/><line class="cls-6" x1="222.79" y1="27.77" x2="297.4" y2="27.77"/><line class="cls-6" x1="222.79" y1="35" x2="310.8" y2="35"/><line class="cls-8" x1="174.51" y1="20.53" x2="181.67" y2="20.53"/><line class="cls-8" x1="174.51" y1="27.77" x2="181.67" y2="27.77"/><line class="cls-8" x1="174.51" y1="35" x2="181.67" y2="35"/><line class="cls-9" x1="184.76" y1="20.53" x2="186.66" y2="20.53"/><line class="cls-9" x1="184.76" y1="27.77" x2="186.66" y2="27.77"/><line class="cls-9" x1="184.76" y1="35" x2="186.66" y2="35"/><line class="cls-9" x1="284.46" y1="20.53" x2="286.37" y2="20.53"/><line class="cls-9" x1="302.8" y1="27.77" x2="304.7" y2="27.77"/><line class="cls-9" x1="315.27" y1="35" x2="317.18" y2="35"/><line class="cls-6" x1="101.74" y1="42.24" x2="163.19" y2="42.24"/><line class="cls-7" x1="94.35" y1="122.78" x2="104.51" y2="122.78"/><line class="cls-7" x1="118.14" y1="137.26" x2="128.31" y2="137.26"/><line class="cls-6" x1="148.17" y1="137.26" x2="215.62" y2="137.26"/><line class="cls-8" x1="102.44" y1="130.02" x2="201.3" y2="130.02"/><line class="cls-8" x1="132.7" y1="137.26" x2="139.86" y2="137.26"/><line class="cls-9" x1="142.95" y1="137.26" x2="144.85" y2="137.26"/><line class="cls-9" x1="89.5" y1="122.78" x2="91.4" y2="122.78"/><line class="cls-9" x1="106.82" y1="122.78" x2="108.73" y2="122.78"/><line class="cls-7" x1="131.77" y1="144.5" x2="136.39" y2="144.5"/><line class="cls-9" x1="126.92" y1="144.5" x2="128.83" y2="144.5"/><line class="cls-9" x1="138.7" y1="144.5" x2="140.61" y2="144.5"/><line class="cls-7" x1="144.71" y1="158.98" x2="149.33" y2="158.98"/><line class="cls-9" x1="139.86" y1="158.98" x2="141.76" y2="158.98"/><line class="cls-9" x1="151.64" y1="158.98" x2="153.54" y2="158.98"/><line class="cls-9" x1="113.29" y1="137.26" x2="115.2" y2="137.26"/><line class="cls-8" x1="140.09" y1="151.74" x2="293.01" y2="151.74"/><line class="cls-9" x1="217.93" y1="137.26" x2="219.84" y2="137.26"/><line class="cls-6" x1="101.74" y1="85.67" x2="186.29" y2="85.67"/><line class="cls-6" x1="101.74" y1="92.91" x2="226.95" y2="92.91"/><line class="cls-6" x1="101.74" y1="100.15" x2="144.25" y2="100.15"/><line class="cls-9" x1="68.02" y1="13.29" x2="72.64" y2="13.29"/><line class="cls-9" x1="68.02" y1="20.53" x2="72.64" y2="20.53"/><line class="cls-9" x1="68.02" y1="27.77" x2="72.64" y2="27.77"/><line class="cls-9" x1="68.02" y1="35" x2="72.64" y2="35"/><line class="cls-9" x1="68.02" y1="42.24" x2="72.64" y2="42.24"/><line class="cls-9" x1="68.02" y1="49.48" x2="72.64" y2="49.48"/><line class="cls-9" x1="68.02" y1="56.72" x2="72.64" y2="56.72"/><line class="cls-9" x1="68.02" y1="63.96" x2="72.64" y2="63.96"/><line class="cls-9" x1="68.02" y1="71.2" x2="72.64" y2="71.2"/><line class="cls-9" x1="68.02" y1="78.44" x2="72.64" y2="78.44"/><line class="cls-9" x1="68.02" y1="85.67" x2="72.64" y2="85.67"/><line class="cls-9" x1="68.02" y1="92.91" x2="72.64" y2="92.91"/><line class="cls-9" x1="68.02" y1="100.15" x2="72.64" y2="100.15"/><line class="cls-9" x1="68.02" y1="107.39" x2="72.64" y2="107.39"/><line class="cls-9" x1="68.02" y1="114.63" x2="72.64" y2="114.63"/><line class="cls-9" x1="68.02" y1="121.87" x2="72.64" y2="121.87"/><line class="cls-9" x1="68.02" y1="129.11" x2="72.64" y2="129.11"/><path class="cls-1" d="M145.57,324.6l-5.79,8.81L188.35,349s3.24-3.1-8.68-9.33C165.8,332.38,145.57,324.6,145.57,324.6Z"/><path class="cls-1" d="M136.94,324.6l5.78,8.81L94.16,349s-3.24-3.1,8.67-9.33C116.71,332.38,136.94,324.6,136.94,324.6Z"/><rect class="cls-1" x="136.18" y="298.37" width="10.15" height="36.13"/><path class="cls-1" d="M146.22,326.45l-4.95,8.42,41.57,14.84s2.77-3-7.42-8.9C163.54,333.88,146.22,326.45,146.22,326.45Z"/><path class="cls-1" d="M136.29,326.45l5,8.42L99.67,349.71s-2.78-3,7.42-8.9C119,333.88,136.29,326.45,136.29,326.45Z"/><path class="cls-1" d="M178.13,353.05a3.53,3.53,0,1,0,3.53-3.52A3.53,3.53,0,0,0,178.13,353.05Z"/><path class="cls-1" d="M97.59,353.05a3.53,3.53,0,1,0,3.52-3.52A3.53,3.53,0,0,0,97.59,353.05Z"/><path class="cls-1" d="M186.67,353.05a3.53,3.53,0,1,0,3.52-3.52A3.53,3.53,0,0,0,186.67,353.05Z"/><path class="cls-1" d="M89.05,353.05a3.53,3.53,0,1,0,3.53-3.52A3.53,3.53,0,0,0,89.05,353.05Z"/><rect class="cls-1" x="137.67" y="285.13" width="7.42" height="12.99"/><path class="cls-1" d="M132.11,278.26a7.24,7.24,0,0,0,7.23,7.24h4.09a7.24,7.24,0,0,0,7.23-7.24h0a7.23,7.23,0,0,0-7.23-7.23h-4.09a7.23,7.23,0,0,0-7.23,7.23Z"/><path class="cls-10" d="M86.22,271.64c-.18-.85-.28-6.19-.28-7.11,0-5.84,3.77-10.58,8.44-10.58h94c4.66,0,8.44,4.74,8.44,10.58,0,.92-.1,6.26-.28,7.11Z"/><path class="cls-1" d="M197.7,274.51c0,1.79-1,3.24-2.34,3.24h-108c-1.29,0-2.34-1.45-2.34-3.24h0c0-1.79,1.05-3.24,2.34-3.24h108c1.29,0,2.34,1.45,2.34,3.24Z"/><path class="cls-11" d="M123.27,253.66s60.46.13,83.8.48c16.15.25,17.62-22.77,11.25-26.24C199,217.38,138.65,212,138.65,212l-41,37.69S99.91,249.6,123.27,253.66Z"/><path class="cls-12" d="M180.28,130.28s15.54-4.34,22.31,16c10.38,31.15,9.46,59.72,8,65.81-.67,2.8-2.67,12.48-20,12.85-7.05.15-4.23-14.94-4.23-14.94a328.37,328.37,0,0,1-9.33-34.5C172.21,153.77,180.28,130.28,180.28,130.28Z"/><path class="cls-12" d="M192.58,132l-39.87-12.9-30.18-2-33.07,10s-10.82,7.46-.77,31.43,6.18,61.52,6.18,61.52l85.3,2.74a692.83,692.83,0,0,1,7.27-69.45C188.7,145.61,188.86,136.49,192.58,132Z"/><path class="cls-13" d="M151,128.54c-.59,4.61-4.36,8.61-8.32,8.79H131.43c-4-.18-7.73-4.18-8.32-8.79q-1.38-11.4-2.77-22.81c-.61-4.55,2.09-13.71,8.09-16.41a21.48,21.48,0,0,1,17.25,0c6,2.7,8.71,11.86,8.1,16.41Q152.39,117.13,151,128.54Z"/><polygon class="cls-14" points="136.61 137.9 129.45 149.64 116.34 133.24 118.41 124.61 122.66 121.12 122.72 127.61 136.61 137.9"/><polygon class="cls-14" points="137.48 137.9 144.63 149.64 156.83 134.36 154.83 125 151.77 121.05 150.53 128.72 137.48 137.9"/><path class="cls-15" d="M135.35,74.85a9,9,0,0,0-7.54,4.08h-3.09a7,7,0,0,0-7,7v17.26h4.91v-7a4.92,4.92,0,0,1,4.92-4.92h1.33a9,9,0,0,0,9-9V74.85Z"/><path class="cls-13" d="M126.64,109.6a4.27,4.27,0,0,1-4.28,4.28H122a4.27,4.27,0,0,1-4.28-4.28v-5.19a4.28,4.28,0,0,1,4.28-4.28h.35a4.29,4.29,0,0,1,3.92,2.55"/><path class="cls-1" d="M131.52,81.71V74.85h14.81a9,9,0,0,1,9,9v6.85H140.54A9,9,0,0,1,131.52,81.71Z"/><path class="cls-13" d="M154.08,116.16c0,3.59-2.76,9.66-7.3,11.58a26.26,26.26,0,0,1-19.64,0c-4.55-1.92-7.28-8-7.3-11.58V85.63c0-3.61,3.57-6.64,8-6.72h18.2c4.44.08,8,3.11,8,6.72Z"/><path class="cls-1" d="M140.46,74.85A9,9,0,0,1,148,78.93h3.1a7,7,0,0,1,7,7v17.26h-4.92v-7a4.92,4.92,0,0,0-4.92-4.92H142a9,9,0,0,1-9-9V74.85Z"/><path class="cls-13" d="M149.24,104.4a4.28,4.28,0,0,1,4.28-4.27h.36a4.27,4.27,0,0,1,4.27,4.27v5.2a4.28,4.28,0,0,1-4.27,4.28h-.36a4.29,4.29,0,0,1-3.92-2.55"/><path class="cls-1" d="M133,83.48a8.71,8.71,0,0,0,.18-1.77V74.85h-6.39a9,9,0,0,0-9,9v6.85h6.39a9.44,9.44,0,0,0,1.85-.19A9,9,0,0,1,133,83.48Z"/><path class="cls-16" d="M53.79,369.27c-.93,1.13-.25,4.1-.25,4.1s16.27,1.81,21.51.58a27.82,27.82,0,0,0,5.83-2.73c.37-.21,1-1.46,1.36-1.67.66-.39,1,.26,1.56-.09a19.62,19.62,0,0,0,2.49-1.72c1.43-7.46-.48-10.47-.48-10.47s-13.86-4.61-16.45-1.4C63.25,363.43,55.83,366.8,53.79,369.27Z"/><path class="cls-16" d="M205.91,361.15l1.12,12.3,12.31,1.2s.86-1.64,1.89-1.54,1.85,1.91,3,2l6.61.65,24.7,2.42s.81-2.49.22-3.43a12.16,12.16,0,0,0-3.63-2c-6.18-2.4-23.84-9.76-26.4-16.15C222.64,348.86,205.91,361.15,205.91,361.15Z"/><path class="cls-13" d="M187.29,205.5l-41.62,17s29.53,4.21,48,.45C206.13,220.4,187.86,205,187.29,205.5Z"/><path class="cls-17" d="M92.82,231.4s-4,38-3.43,58.09c.43,15.15.48,44.2-3.13,68.95-.22,1.51-19.58.37-19.58.37s-7-94.21-9-109.73S61.6,222.37,92.82,231.4Z"/><path class="cls-18" d="M214.58,240.56s-6.24,9.85-23.35,12.18c-6.18.84,10,110.28,10,110.28l25.28-8.09-4.88-121Z"/><path class="cls-19" d="M144.83,252.74s-33,4.71-55.11,7c-8.08.84-15.09-21.8-16-22.78-5.91-6.18-11.74-5.4-11.53-5.62,4.78-5.17,29.53-10,55.39-16s29.81-2.25,29.81-2.25Z"/><path class="cls-20" d="M117.56,215.34c-25.86,6.07-50.61,10.86-55.39,16-.21.22,5.62-.56,11.53,5.62.25.27,1.74,7.53,2.81,10.13-4.22-7.6,56.56-29,69.7-34.57C143.76,211.77,136.61,210.87,117.56,215.34Z"/><path class="cls-12" d="M107.73,127.48s-13.28-10.41-26.28,8.91c-19,28.31-27.31,58.42-30.34,67.14-2.32,6.68-1,25.58,6.75,33.37,1.87,1.87,13.12.37,13.12.37l7.38-5.1-3.09-5.95-.17-4.69s9.44-22.78,21-44.31S107.73,127.48,107.73,127.48Z"/><path class="cls-13" d="M75.26,214l43.13,2.25s-41.55,19.06-42.91,15.78C67.69,213.45,75.26,214,75.26,214Z"/><path class="cls-5" d="M99,212.71c2.52-1.21,2.3-1.23,2.3-1.23a10.3,10.3,0,0,0,5.63,3.25c1.66.26,7,.32,7,.32l7.94.2,3.69-.21a6.82,6.82,0,0,1,2.63.08c1.61,1,.23,1.86.23,1.86l-14.23,2,13.68,1.69s1.71.51,1.8,1.44-.5.84-.5.84l-15.89,1.7,7,1.66s1.67.54,1.8,1.44.2,1.25.2,1.25l-14.61-1.43S96.47,213.93,99,212.71Z"/><path class="cls-5" d="M114.77,221.51l9.56,1.75a7.82,7.82,0,0,1,3.15.86,1.28,1.28,0,0,1,.46,1.78l-14.66-1.23Z"/><path class="cls-14" d="M174.73,229a.26.26,0,0,1,.05-.09l-.05-2.72h-85V229a.12.12,0,0,0,0,.09l.29.5c1.45,2.36,4,2.78,7,2.78h70.36c3,0,5.57-.42,7-2.78Z"/><rect class="cls-13" x="104.13" y="226.86" width="56.27" height="1.92"/><path class="cls-14" d="M174.68,226.52l.23-55.71a2.65,2.65,0,0,0-2.65-2.66H92.72a2.67,2.67,0,0,0-2.67,2.66l-.23,55.71Z"/><path class="cls-13" d="M137.51,197.34a5.15,5.15,0,1,1-5.12-5.16A5.16,5.16,0,0,1,137.51,197.34Z"/><polygon class="cls-14" points="69.66 235.58 66.7 216.68 71.61 211.62 82.5 213.36 80.28 234.29 69.66 235.58"/><polygon class="cls-14" points="201.91 222.01 203.04 215.06 189.26 202.69 181.81 206.05 191.56 224.71 201.91 222.01"/><polygon class="cls-1" points="11.74 425.81 0 425.81 19.36 238.28 36.38 238.28 11.74 425.81"/><polygon class="cls-1" points="255.33 425.81 267.06 425.81 247.7 238.28 230.68 238.28 255.33 425.81"/><rect class="cls-1" x="128.13" y="232.19" width="136" height="10.96"/><rect class="cls-1" x="5.37" y="232.19" width="123.8" height="10.96"/></g></g></svg>