<svg xmlns="http://www.w3.org/2000/svg" xmlns:xlink="http://www.w3.org/1999/xlink" viewBox="0 0 506.69 373.25"><defs><style>.cls-1{fill:url(#linear-gradient);}.cls-2{fill:#2a2c2d;}.cls-10,.cls-11,.cls-12,.cls-2,.cls-3,.cls-4,.cls-7,.cls-8,.cls-9{fill-rule:evenodd;}.cls-3,.cls-6{fill:#3b3e3f;}.cls-4{fill:#4f5354;}.cls-5{fill:#fff;}.cls-7{fill:url(#linear-gradient-2);}.cls-8{fill:url(#linear-gradient-3);}.cls-9{fill:url(#linear-gradient-4);}.cls-10{fill:#ff8a6f;}.cls-11{fill:#fcb765;}.cls-12{fill:url(#linear-gradient-5);}</style><linearGradient id="linear-gradient" x1="9.91" y1="238.3" x2="137.91" y2="312.2" gradientUnits="userSpaceOnUse"><stop offset="0" stop-color="#ffc371"/><stop offset="0.17" stop-color="#ffbd71"/><stop offset="0.39" stop-color="#ffac70"/><stop offset="0.65" stop-color="#ff906f"/><stop offset="0.93" stop-color="#ff6a6d"/><stop offset="1" stop-color="#ff5f6d"/></linearGradient><linearGradient id="linear-gradient-2" x1="391.67" y1="11.92" x2="423.82" y2="11.92" gradientUnits="userSpaceOnUse"><stop offset="0" stop-color="#fee870"/><stop offset="0.08" stop-color="#fee97c"/><stop offset="0.24" stop-color="#ffec91"/><stop offset="0.43" stop-color="#ffeea0"/><stop offset="0.65" stop-color="#ffefa8"/><stop offset="1" stop-color="#ffefab"/></linearGradient><linearGradient id="linear-gradient-3" x1="714.55" y1="253.07" x2="800.23" y2="253.07" gradientTransform="translate(-295.5)" xlink:href="#linear-gradient-2"/><linearGradient id="linear-gradient-4" x1="682.15" y1="261.99" x2="751.28" y2="261.99" gradientTransform="translate(-295.5)" xlink:href="#linear-gradient-2"/><linearGradient id="linear-gradient-5" x1="647.64" y1="70.63" x2="668.66" y2="70.63" gradientTransform="translate(-295.5)" xlink:href="#linear-gradient-2"/></defs><title>cost-estimate</title><g id="Layer_2" data-name="Layer 2"><g id="_3" data-name="3"><g id="Teamwork---Web"><ellipse class="cls-1" cx="73.91" cy="275.25" rx="73.91" ry="73.84"/><g id="Teamwork"><g id="Note"><path id="Path_1135" data-name="Path 1135" class="cls-2" d="M370.72,38.26S360.17,6.67,344.21,6.67H117S140.38,13.6,136,38.26Z"/><path id="Path_1136" data-name="Path 1136" class="cls-3" d="M87.47,6.78c28.89,0,207.17-1.41,234.65-.71l1,0c8.55.23,14.46,0,13.76,1.38-5.67,11.34-15.61,46.19-16.21,80.33-1.15,65.64,1.46,162.81,2.46,196.15a11.39,11.39,0,0,1-11.39,11.73H81a11.39,11.39,0,0,1-11.39-11.18c-.81-43.5-3.42-200.44.21-227.7C74.08,25.1,78.31,6.78,87.47,6.78Z"/><path id="Path_1137" data-name="Path 1137" class="cls-4" d="M40.26,254.82s-2,40.87,28.49,40.87H313s-25.1-16.21-20.35-40.87Z"/><g id="Group_623" data-name="Group 623"><g id="Group_615" data-name="Group 615"><rect id="Rectangle_265" data-name="Rectangle 265" class="cls-5" x="104.38" y="40.25" width="177.58" height="2.11"/></g><g id="Group_616" data-name="Group 616"><rect id="Rectangle_266" data-name="Rectangle 266" class="cls-5" x="104.38" y="67.38" width="177.58" height="2.11"/></g><g id="Group_617" data-name="Group 617"><rect id="Rectangle_267" data-name="Rectangle 267" class="cls-5" x="104.38" y="94.51" width="177.58" height="2.11"/></g><g id="Group_618" data-name="Group 618"><rect id="Rectangle_268" data-name="Rectangle 268" class="cls-5" x="104.38" y="121.64" width="177.58" height="2.11"/></g><g id="Group_619" data-name="Group 619"><rect id="Rectangle_269" data-name="Rectangle 269" class="cls-5" x="104.38" y="148.76" width="177.58" height="2.11"/></g><g id="Group_620" data-name="Group 620"><rect id="Rectangle_270" data-name="Rectangle 270" class="cls-5" x="104.38" y="175.89" width="177.58" height="2.11"/></g><g id="Group_621" data-name="Group 621"><rect id="Rectangle_271" data-name="Rectangle 271" class="cls-5" x="104.38" y="203.02" width="177.58" height="2.11"/></g><g id="Group_622" data-name="Group 622"><rect id="Rectangle_272" data-name="Rectangle 272" class="cls-5" x="104.38" y="230.15" width="177.58" height="2.11"/></g></g><rect id="Rectangle_278" data-name="Rectangle 278" class="cls-6" x="101.56" y="39.19" width="97.95" height="113.45"/></g><g id="Person"><g id="Group_625" data-name="Group 625"><path id="Path_1142" data-name="Path 1142" class="cls-7" d="M397.27,13S385.45,1.15,396.14.58s29.26-2.81,27.57,7.88-2.25,15-6.19,15.38S397.27,13,397.27,13Z"/><g id="Group_624" data-name="Group 624"><path id="Path_1143" data-name="Path 1143" class="cls-3" d="M398,6.38s-9.6,24.47,5.58,24a15.8,15.8,0,0,0,13.21-7.14s3.2,1.23,4-5.4c.48-3.94-4.34-6.36-4.94-.18,0,0-3.62.87-4-4.45S408.71,8,405.67,8.68,398.35,8,398,6.38Z"/><path id="Path_1144" data-name="Path 1144" class="cls-3" d="M417.91,22.49s1.14,10.72,4.11,15.79c0,0,3.52,3.66,6.51,4.73,3.63,1.3-14.67,30.07-20,20.54s-4-14-4-14,4.52-6.1,4.34-7S405.13,29,405.13,29,405.74,17.09,417.91,22.49Z"/></g></g><path id="Path_1145" data-name="Path 1145" class="cls-8" d="M504.72,345.46l-21.51,8.75,0,0c-1.27-2.53-45.08-89.59-48.53-97.46-17.19-39.25-15.57-104.79-15.57-104.79h44c11.35,29.11-1.69,90.57-1.69,90.57C482.78,252.63,504.72,345.46,504.72,345.46Z"/><path id="Path_1146" data-name="Path 1146" class="cls-9" d="M432.71,359.53c.05.36-8.33-.21-8.28.15a90.64,90.64,0,0,0,2.69,12.94H386.65l22-12.67c0-.08,0-.17,0-.28-.08-8-3.4-94.45-6.6-108.44-3.24-14.16,4.85-99.53,4.85-99.53l48.33-.34c4.92,28.12-24.19,94.52-24.19,94.52C446.21,272.88,431.63,351.17,432.71,359.53Z"/><path id="Path_1147" data-name="Path 1147" class="cls-10" d="M386.65,372.62l22-12.67c0-.08,0-.17,0-.28h15.8a90.49,90.49,0,0,0,2.69,12.95Z"/><path id="Path_1148" data-name="Path 1148" class="cls-11" d="M400.91,55.34l21.2-17.06s21.37-3.75,27.56,35.82,13.5,77.82,13.5,77.82H406.91s5.07-30.38,0-41.07S389.85,58.91,400.91,55.34Z"/><path id="Path_1149" data-name="Path 1149" class="cls-3" d="M370.75,63.14,336.59,40h0c-3.64-2.91-8.1-6.59-9.07-7.88-1.68-2.25-6.19-10.69-7.87-8.44s-6.75,11.25-3.94,14.07,7.87,3.37,7.87,3.37L328,45.81,357.8,80c3.95,3.57,11-7.57,13.91-12.76A3.11,3.11,0,0,0,370.75,63.14Z"/><path id="Path_1150" data-name="Path 1150" class="cls-11" d="M431.67,51.78c.56,6.19-2.62,20.06-13.5,24.19-15.71,6-25.5,11-37.05,14.18C374.5,92,362.9,84.6,357.8,80l15.27-15.27s33.22-16.55,39.39-18.55S430.8,42.21,431.67,51.78Z"/><path id="Path_1151" data-name="Path 1151" class="cls-10" d="M468.66,373.25l14.56-19a0,0,0,0,1,0,0l14.62-6,.14.24,8.72,14.67Z"/><path id="Path_1152" data-name="Path 1152" class="cls-12" d="M367,60.22s2.81,0,3.38,2.25c0,0,2.25-.56,2.81,2.25L358.53,81s-4.5-.57-3.38-2.82c0,0-3.93-1.12-2.81-3.37Z"/></g></g></g><path class="cls-5" d="M136.52,152.7V139.55c-8.55-.29-17.06-2.78-22-5.81l3.75-13.49a43.65,43.65,0,0,0,21.23,5.87c8.35,0,14-3.94,14-10.08,0-6-4.62-9.64-14.6-13.29C124.78,97.64,115.43,91,115.43,78.44c0-11.7,8.18-20.75,21.87-23.3V42h11.62V54.38a43.23,43.23,0,0,1,18.73,4.5L163.9,72a39.15,39.15,0,0,0-18.44-4.64C136.24,67.33,133,72,133,76.4c0,5.29,4.74,8.41,16.26,12.93,15.25,5.71,21.83,13,21.83,25.14,0,11.64-8.08,21.69-22.94,24.24v14Z"/></g></g></svg>