<svg xmlns="http://www.w3.org/2000/svg" xmlns:xlink="http://www.w3.org/1999/xlink" viewBox="0 0 488.56 482.42"><defs><style>.cls-1,.cls-21{fill:#3b3e3f;}.cls-2{fill:url(#linear-gradient);}.cls-3{fill:url(#linear-gradient-2);}.cls-4{fill:url(#linear-gradient-3);}.cls-5{fill:url(#linear-gradient-4);}.cls-6{fill:#fff;}.cls-7{fill:#cdd5d7;}.cls-8{fill:#e9d6b8;}.cls-19,.cls-9{fill:#f4f4f4;}.cls-10,.cls-20{fill:#fcb765;}.cls-11{fill:#163f59;}.cls-12{fill:url(#linear-gradient-5);}.cls-13{fill:url(#linear-gradient-6);}.cls-14{fill:url(#linear-gradient-7);}.cls-15{fill:url(#linear-gradient-8);}.cls-16{fill:url(#linear-gradient-9);}.cls-17{fill:url(#linear-gradient-10);}.cls-18{fill:url(#linear-gradient-11);}.cls-19,.cls-20,.cls-21{fill-rule:evenodd;}</style><linearGradient id="linear-gradient" x1="340.92" y1="220.77" x2="358.77" y2="231.08" gradientUnits="userSpaceOnUse"><stop offset="0" stop-color="#ffc371"/><stop offset="0.17" stop-color="#ffbd71"/><stop offset="0.39" stop-color="#ffac70"/><stop offset="0.65" stop-color="#ff906f"/><stop offset="0.93" stop-color="#ff6a6d"/><stop offset="1" stop-color="#ff5f6d"/></linearGradient><linearGradient id="linear-gradient-2" x1="458.5" y1="154.53" x2="486.4" y2="170.64" xlink:href="#linear-gradient"/><linearGradient id="linear-gradient-3" x1="343.12" y1="56.25" x2="430.41" y2="106.65" xlink:href="#linear-gradient"/><linearGradient id="linear-gradient-4" x1="409.21" y1="220.17" x2="452.96" y2="245.43" xlink:href="#linear-gradient"/><linearGradient id="linear-gradient-5" x1="251.84" y1="29.7" x2="311.25" y2="29.7" xlink:href="#linear-gradient"/><linearGradient id="linear-gradient-6" x1="124.01" y1="89.36" x2="182.13" y2="89.36" xlink:href="#linear-gradient"/><linearGradient id="linear-gradient-7" x1="103.24" y1="413.68" x2="142.8" y2="413.68" gradientUnits="userSpaceOnUse"><stop offset="0" stop-color="#fee870"/><stop offset="0.08" stop-color="#fee97c"/><stop offset="0.24" stop-color="#ffec91"/><stop offset="0.43" stop-color="#ffeea0"/><stop offset="0.65" stop-color="#ffefa8"/><stop offset="1" stop-color="#ffefab"/></linearGradient><linearGradient id="linear-gradient-8" x1="115.65" y1="355.58" x2="176.36" y2="355.58" xlink:href="#linear-gradient-7"/><linearGradient id="linear-gradient-9" x1="148.61" y1="337.56" x2="188.44" y2="337.56" xlink:href="#linear-gradient-7"/><linearGradient id="linear-gradient-10" x1="159.46" y1="419.23" x2="185.37" y2="419.23" xlink:href="#linear-gradient-7"/><linearGradient id="linear-gradient-11" x1="40.53" y1="53.27" x2="99.93" y2="53.27" xlink:href="#linear-gradient"/></defs><title>discussion</title><g id="Layer_2" data-name="Layer 2"><g id="_3" data-name="3"><path class="cls-1" d="M227.64,160.09c35.68,21.11,95.06,36.25,78.52,65.81C255.74,316,351.43,332.57,426.24,254.38,545.16,130.07,412.6,71.49,351.57,77.72,159.52,97.35,189.93,137.76,227.64,160.09Z"/><ellipse class="cls-2" cx="349.84" cy="225.92" rx="10.31" ry="10.3"/><ellipse class="cls-3" cx="472.45" cy="162.58" rx="16.11" ry="16.09"/><ellipse class="cls-4" cx="386.77" cy="81.45" rx="50.4" ry="50.35"/><ellipse class="cls-5" cx="431.08" cy="232.8" rx="25.26" ry="25.24"/><circle class="cls-6" cx="421.3" cy="124.8" r="0.88"/><circle class="cls-6" cx="387.65" cy="101.48" r="0.88"/><circle class="cls-6" cx="359.76" cy="160.92" r="0.88"/><circle class="cls-6" cx="451.45" cy="181.22" r="0.88"/><circle class="cls-6" cx="343.96" cy="284.13" r="0.88"/><circle class="cls-6" cx="403.02" cy="194.91" r="0.88"/><circle class="cls-6" cx="400.32" cy="248.02" r="0.88"/><circle class="cls-6" cx="428.03" cy="162.58" r="0.88"/><circle class="cls-6" cx="315.81" cy="158.57" r="0.88"/><circle class="cls-6" cx="270.39" cy="157.8" r="0.88"/><circle class="cls-6" cx="238.45" cy="137.02" r="0.88"/><path class="cls-6" d="M251.33,395.26l-.48,10.9H242s-.49-1.36-1.24-1.36-1.45,1.36-2.31,1.36H215.88s-.4-2,.09-2.72a8.42,8.42,0,0,1,2.72-1.28c4.58-1.42,17.69-5.86,20-10.69C241.43,385.6,251.33,395.26,251.33,395.26Z"/><path class="cls-7" d="M215.81,403.87a6.86,6.86,0,0,0,.07,2.29h22.55c.86,0,1.68-1.36,2.31-1.36s1.24,1.36,1.24,1.36h8.87l.39-2.29Z"/><path class="cls-8" d="M232.22,399.6c-.19.29-.7,0-1.37-.6-1.62-1.36-1.47-1.21-1-1.44s.63-.31,1.57.51C232,398.64,232.42,399.32,232.22,399.6Z"/><path class="cls-8" d="M234.62,398.44c-.19.29-.7,0-1.37-.6-1.62-1.36-1.47-1.21-1.05-1.44s.63-.32,1.57.5C234.42,397.48,234.82,398.16,234.62,398.44Z"/><path class="cls-8" d="M236.82,397.12c-.19.28-.7,0-1.37-.6-1.62-1.37-1.47-1.22-1-1.45s.64-.31,1.57.51C236.63,396.16,237,396.83,236.82,397.12Z"/><path class="cls-6" d="M318.54,406.24c.66,1.14.21,3.79.21,3.79s-13.64,1.68-18,.54a22.5,22.5,0,0,1-4.89-2.53c-.3-.19-.84-1.35-1.14-1.54-.55-.36-.84.24-1.31-.08a15.66,15.66,0,0,1-2.08-1.6c-1.2-6.9.4-9.69.4-9.69s8.74-4.26,10.91-1.29C307.73,400.84,316.61,403,318.54,406.24Z"/><path class="cls-7" d="M318.93,407.72c-4.21.6-13,1.79-14.67,1.46-6.66-1.33-10.64-5.2-13.35-7.58a31.42,31.42,0,0,0,.39,3.22,15.66,15.66,0,0,0,2.08,1.6c.47.32.76-.28,1.31.08.3.19.84,1.35,1.14,1.54a22.5,22.5,0,0,0,4.89,2.53c4.39,1.14,18-.54,18-.54A10.73,10.73,0,0,0,318.93,407.72Z"/><path class="cls-8" d="M311.52,401.16c.05.3-.51.46-1.28.42a21.85,21.85,0,0,0-4.69.25c-.78.13-1.44,0-1.47-.3s.57-.72,1.34-.83a21.26,21.26,0,0,1,4.63-.21C310.8,400.54,311.45,400.87,311.52,401.16Z"/><path class="cls-8" d="M308.89,399.11c.05.31-.53.53-1.28.56a22,22,0,0,0-4.64.69c-.76.2-1.41.14-1.43-.19s.57-.8,1.33-1a22.06,22.06,0,0,1,4.58-.64C308.2,398.53,308.84,398.81,308.89,399.11Z"/><path class="cls-8" d="M306.34,397.23c0,.32-.54.61-1.29.71a22.25,22.25,0,0,0-4.56,1.1c-.75.26-1.38.25-1.4-.09s.58-.86,1.32-1.12a22.51,22.51,0,0,1,4.52-1C305.67,396.7,306.3,396.92,306.34,397.23Z"/><path class="cls-9" d="M190.49,163.45l-8.42-1.22-4.82-.37-6.45.44s-2.53,2,3.62,2.77c.93.12-6.24,1.61-6.24,1.61l-4.93,1.62-.71,1.84,2.66,4s2.27-.44,1-3.73c-.13-.35,4.14-.66,4.14-.66l6.45,4.2s3.34.76,4.77-.57l1.42-1.35-.6-.51,6.39-.48a5.55,5.55,0,0,0,3.48-2.77c1-2.16,3.41-1,3.41-1Z"/><path class="cls-10" d="M238.86,153.52s-17.37-8.11-23.62-5.86S186.1,159.4,186.1,159.4l6.29,10.84s45.25-9,48.27-11.5S239.84,154.15,238.86,153.52Z"/><path class="cls-1" d="M233.75,394.68l18.09.61-4.38-189.46-38.38-11.5S215.11,317.81,233.75,394.68Z"/><polygon class="cls-1" points="262.26 209.47 309.55 398.34 288.17 398.94 218.4 197.97 262.26 209.47"/><path class="cls-1" d="M247.49,207.11l-3.07-2.19-35.34-10.59s.61,12.55,2,32.13L248.43,248Z"/><path class="cls-11" d="M262.44,210.12l-.18-.65-21.47-5.63-31.71-9.51s.11,2.24.34,6.3Z"/><path class="cls-10" d="M257.92,107.46s-23.65-8.83-35.56,19.3-18,81.91-18,81.91l59.6,3.57-.7-75.73S266.93,110.11,257.92,107.46Z"/><path class="cls-10" d="M258.35,108.39s6-2.2,8.28,17.23,5.25,57.65,4.64,67.61c-.15,2.46-.35,13.85-6.81,8.66s-16.12-29.16-16.35-63.3C248,116.7,255.17,109.22,258.35,108.39Z"/><path class="cls-9" d="M227.22,167.59l-13.4-3.72-4.77.52,2.28,3.74L207.19,171l-5-.49-2.94-2.48,0,3.61a7.1,7.1,0,0,0,2.33,2.65c1.58,1,7.81,7.35,7.81,7.35l3.19-1.56,7.13-4,5.87,2.44Z"/><path class="cls-10" d="M269,197.38s-7.37-18.1-13.24-20.32-28.13-9.33-28.13-9.33l-2.24,13.1S263.25,203,267,202.9,269.26,198.55,269,197.38Z"/><path class="cls-9" d="M237.42,93.77c.51,10.7,1.27,16.06,1.67,16.71,2.79,4.44,16.44-1,15.74-3.81s.71-15.63,1.34-17.52S237.11,87.42,237.42,93.77Z"/><path class="cls-9" d="M231.46,65.16l-2.15,29s-.51,6.88,2.13,8,9.94.81,13.15-1.39,8.34-5,9.48-11.21,1.57-21.15,1.57-21.15-1.83-5-11.52-2.34S231.46,65.16,231.46,65.16Z"/><path class="cls-1" d="M233,58.14c-1.34.31-3.61,1.22-4.29,3.38s1.18,5.6,3.14,6.14,14.81,1,16.43.52,4.63-1,6.17-3.35c1-1.51-3.61-5-6.54-4.24C240.45,62.44,238,57,233,58.14Z"/><path class="cls-1" d="M251.15,64.87l-.93,12.55.52,6.67,1.52,0,2.8.09s5.84-17.07,1.67-19.18S251.48,63.9,251.15,64.87Z"/><path class="cls-9" d="M252.35,85.38a1.89,1.89,0,0,0,1.88,2l1.18,0a2.1,2.1,0,0,0,2.18-1.9l.34-4.59a1.9,1.9,0,0,0-1.88-2l-1.19,0a2.11,2.11,0,0,0-2.18,1.9Z"/><polygon class="cls-1" points="248.09 64.14 252.9 63.75 253.54 77.65 248.73 78.04 248.09 64.14"/><path class="cls-12" d="M251.84,43.78a4.69,4.69,0,0,0,4.69,4.69h3.13V59.41L270.6,48.47h36a4.69,4.69,0,0,0,4.69-4.69V4.69A4.69,4.69,0,0,0,306.56,0h-50a4.69,4.69,0,0,0-4.69,4.69Z"/><rect class="cls-6" x="261.22" y="14.07" width="40.65" height="3.13"/><rect class="cls-6" x="261.22" y="21.89" width="40.65" height="3.12"/><rect class="cls-6" x="261.22" y="29.7" width="40.65" height="3.13"/><path class="cls-13" d="M182.13,105.37c0,2.95-2,5.34-4.59,5.34h-3v12.44l-10.71-12.44H128.6c-2.53,0-4.59-2.39-4.59-5.34V60.9c0-2.94,2.06-5.33,4.59-5.33h48.94c2.54,0,4.59,2.39,4.59,5.33Z"/><rect class="cls-6" x="133.19" y="71.58" width="39.77" height="3.56"/><rect class="cls-6" x="133.19" y="80.47" width="39.77" height="3.55"/><rect class="cls-6" x="133.19" y="89.36" width="39.77" height="3.56"/><path class="cls-1" d="M126.57,469.62c.65-.79.18-2.86.18-2.86s-11.39-1.27-15-.41a18.6,18.6,0,0,0-4.07,1.92c-.26.14-.71,1-1,1.16-.46.27-.7-.18-1.09.06a13.76,13.76,0,0,0-1.74,1.2c-1,5.22.33,7.33.33,7.33s9.37,2.92,11.51,1C121.11,474.08,125.14,471.35,126.57,469.62Z"/><path class="cls-1" d="M162.59,473.93l1.62,8.49h8.65s.48-1.21,1.21-1.21,1.41,1.21,2.26,1.21h22s.39-1.79-.09-2.4a8.3,8.3,0,0,0-2.66-1.14c-4.47-1.26-17.25-5.18-19.47-9.45C173.4,464.24,162.59,473.93,162.59,473.93Z"/><path class="cls-9" d="M169.46,188l2.07-10.28s7.31.56,8.73-3.37c2.86-7.88.46-20.48-1.27-24-4.92-10-7-27.66-30-13.66-8.76,5.33,4.76,31.14,5.77,36.73s-2,12-2,12l5.39,4Z"/><path class="cls-9" d="M128.53,285.29l-.76,32.41s-12.21-13.46-13.4-28.79S127.76,284.09,128.53,285.29Z"/><path class="cls-14" d="M142.25,352.08s3.37,1.47-6.56,48.59c-7.15,33.93-13.27,58.75-16.13,70-1.11,4.36-2.35,3.57-2.35,3.57l-9.46,1.06-4.51-3.91,13.52-76.88Z"/><path class="cls-9" d="M204.16,264.18,184.8,301.32s36.95-26.73,34.64-41.44S204.16,264.18,204.16,264.18Z"/><path class="cls-1" d="M128.32,198s-7.85,4.8-13.51,43.8-2,37.51-2,37.51l1,8.88,14.68,1.58,7.93-33.66Z"/><path class="cls-15" d="M164.38,299.31S142.72,389,125.71,429.25c-10,23.55-10.06-21.67-10.06-21.67L131.14,277.3l45.22-2.19S171.23,276.69,164.38,299.31Z"/><path class="cls-16" d="M148.61,275.37S165,391.52,166.7,396.76c5.82,17.73,14.8-5.52,16.85-11.42s5.49-49.67,4.8-81.59l-.68-31.93Z"/><path class="cls-17" d="M165.05,367.71s-2.47,13.85-4.52,31.55c-1.52,13-1.56,50.12.84,75.9.14,1.58,16.53-3.22,16.53-3.22s6-72.17,7.36-88.33S175.33,356.16,165.05,367.71Z"/><path class="cls-1" d="M127.84,198.11l19.33-8.78,5.33-5,20.55-.5,3.61,5.93,15.93,6.91s3.93,6.18.51,29.12c-3.79,25.42-4.59,63.85-4.59,63.85l-60.24,2.9S133.49,210.45,127.84,198.11Z"/><path class="cls-1" d="M187.46,196.68s3.59-4,12.32,6.86c14.89,18.5,22.09,41.46,23.64,45.91s3.52,10.72-2.57,18.11c-4.66,5.65-6.17,7.55-6.17,7.55l-13.36-8.33,2.1-4,1.5-2s-7.2-15.8-14.9-30.12S187.46,196.68,187.46,196.68Z"/><path class="cls-1" d="M172.5,153.3s-2.6-1.6-3,.4,1,6.4,2.2,6.81,1.6,5.8,1.6,5.8l-3.21,6h-16.2s-5-2.2-5.41-5.8-4.4-29-4.4-29l11.41-6a75.25,75.25,0,0,1,10.2-4.21c6.45-1.84,7.81,1.6,7.61,3.4s1.8,2,4.4,2,5.8,2,4.41,3.21c-.58.49,2,2.07,1,4-1.47,2.72-6.39,3.61-6.79,8C176.12,149.89,175.3,156.5,172.5,153.3Z"/><path class="cls-18" d="M40.53,67.34A4.69,4.69,0,0,0,45.22,72h3.12V83L59.29,72H95.24a4.69,4.69,0,0,0,4.69-4.69V28.26a4.69,4.69,0,0,0-4.69-4.69h-50a4.69,4.69,0,0,0-4.69,4.69Z"/><rect class="cls-6" x="49.9" y="37.64" width="40.65" height="3.13"/><rect class="cls-6" x="49.9" y="45.46" width="40.65" height="3.13"/><rect class="cls-6" x="49.9" y="53.27" width="40.65" height="3.13"/><g id="Person-3"><path id="Path_1130" data-name="Path 1130" class="cls-19" d="M87.34,235.28s1.54,8.66-5.38,4.8L70.23,223.6l4.5-10.71Z"/><polygon id="Path_1131" data-name="Path 1131" class="cls-20" points="83.74 225.89 63.91 188.85 61.85 145.77 44.96 145.69 47.92 190.72 73.41 230.96 83.74 225.89"/><path id="Path_1168" data-name="Path 1168" class="cls-21" d="M55.06,93.25c5.55.61,9,5.79,9.51,6.5,3.69,5.65,1.78,12.35,0,16.88-2.38,6.05,2.92,8.37,4.29,14,1.29,5.3-3,12.23-8.73,14.31-7.86,2.88-16.44-4.12-20.33-9.68-8.33-11.91-1.67-26.58-.74-28.56S45.91,92.22,55.06,93.25Z"/><path id="Path_1169" data-name="Path 1169" class="cls-19" d="M59.43,98.63s8,22.51-3.54,20.94c-6.76-.92-10.11-7.15-10.11-7.15s-3.16.61-3.91-3.27c-.5-2.57,2.93-5,4.13-.28,0,0,1.37,0,2.54-3.05.74-1.92,1-4.4,3.69-3.81S59.14,100.08,59.43,98.63Z"/><path id="Path_1170" data-name="Path 1170" class="cls-19" d="M57.83,118.53s-6.19,8.88-5,14-19.2,7.19-14.78-2.25,7.69-11.58,11.59-20.5S57.83,118.53,57.83,118.53Z"/><path id="Path_1172" data-name="Path 1172" class="cls-21" d="M39.69,389.59c.49,3.3,2.63,10.31,11.77,12.44C63.58,404.84,64.1,413.6,64.1,413.6l-36.65-.89s-4.35-17.82-.44-23.8c0,0,0-.19-.08-.55-.92-6.88-9.77-75.85,5.19-96.37,0,0-27.62-46.69-16.92-81.38l37.31-10.76s5.85,76.53,4.35,92.46-20,85.22-17.32,95.52A10.46,10.46,0,0,0,39.69,389.59Z"/><path id="Path_1173" data-name="Path 1173" class="cls-21" d="M102.76,417.4H65.44s-6-17.32-2.66-23.65l-.23-1c-2-8.9-16.49-74.56-3.77-96,0,0-17-14.67-32.65-93l43.32-.16s14,75.14,14,91.14S71.62,382,75.28,392c0,0,0,.27.12.75.53,2.84,3.14,12.9,13.71,14.33C101.43,408.74,102.76,417.4,102.76,417.4Z"/><path id="Path_1174" data-name="Path 1174" class="cls-20" d="M68.56,161.41c-.93,12.18-1.26,32.29,3.55,53.72,0,0-29.33-9.58-58.32-1.67,0,0,15-18.32,11.33-31s-26.66-40.65,13.66-50.32a49.64,49.64,0,0,1,10.94-1.5C68.56,129.45,69.14,154,68.56,161.41Z"/><path id="Path_1180" data-name="Path 1180" class="cls-21" d="M102.77,417.4H65.44s-6-17.32-2.66-23.65l12.62-1c.53,2.84,3.14,12.9,13.71,14.33C101.43,408.74,102.77,417.4,102.77,417.4Z"/><path id="Path_1181" data-name="Path 1181" class="cls-21" d="M64.1,413.6l-36.65-.89S23.1,394.9,27,388.91l12.67.68c.5,3.31,2.64,10.31,11.78,12.44C63.58,404.84,64.1,413.6,64.1,413.6Z"/></g><path id="Path_1130-2" data-name="Path 1130" class="cls-19" d="M88.76,155.68s8.73-1,4.49,5.64L76.14,172.11,65.7,167Z"/><polygon id="Path_1131-2" data-name="Path 1131" class="cls-20" points="76.19 159.51 39.95 180.77 46.84 149.63 30.05 151.47 42.44 196.68 81.66 169.63 76.19 159.51"/><path id="Path_1179" data-name="Path 1179" class="cls-21" d="M59.3,94.05C56.3,89.37,41,90.19,33,98.33c-5.9,6-3.31,8.42-9.66,17.25C16.52,125,7.11,124,3.05,131.32c-4.88,8.81-4.59,22.05,6,30,12.13,9.1,36.2,8,39,.76,2.46-6.35-8.19-12.21-5.76-22.63,1.49-6.39,6.41-8.15,6.25-13.89-.18-6.36-2-6.52-1.27-10.36.84-4.65,5.74-4.71,10.66-12.9C58.32,101.68,61.12,96.9,59.3,94.05Z"/></g></g></svg>