<svg xmlns="http://www.w3.org/2000/svg" xmlns:xlink="http://www.w3.org/1999/xlink" viewBox="0 0 641.6 658.24"><defs><style>.cls-1{fill:none;}.cls-2{clip-path:url(#clip-path);}.cls-3{fill:url(#linear-gradient);}.cls-25,.cls-4{fill:#5b5b5b;}.cls-5{fill:url(#linear-gradient-2);}.cls-6{clip-path:url(#clip-path-2);}.cls-7{fill:url(#linear-gradient-3);}.cls-8{fill:url(#linear-gradient-4);}.cls-9{fill:url(#linear-gradient-5);}.cls-10{fill:url(#linear-gradient-6);}.cls-11{fill:url(#linear-gradient-7);}.cls-12,.cls-14{fill:#fff;}.cls-13{fill:#3b3e3f;}.cls-13,.cls-14,.cls-15,.cls-16,.cls-17,.cls-20,.cls-21,.cls-22,.cls-23,.cls-24,.cls-25,.cls-26,.cls-27,.cls-28,.cls-29{fill-rule:evenodd;}.cls-15{fill:#ff9c8f;}.cls-16{fill:url(#linear-gradient-8);}.cls-17{fill:#fee6a0;}.cls-18{fill:url(#linear-gradient-9);}.cls-19{fill:#ffc598;}.cls-20{fill:url(#linear-gradient-10);}.cls-21{fill:url(#linear-gradient-11);}.cls-22{fill:#fcb765;}.cls-23{fill:url(#linear-gradient-12);}.cls-24{fill:#ffc371;}.cls-26{fill:#777;}.cls-27{fill:#ffd5c0;}.cls-28{fill:url(#linear-gradient-13);}.cls-29{fill:url(#linear-gradient-14);}</style><clipPath id="clip-path"><rect class="cls-1" x="37.52" width="604.09" height="658.24"/></clipPath><linearGradient id="linear-gradient" x1="37.52" y1="329.12" x2="641.6" y2="329.12" gradientUnits="userSpaceOnUse"><stop offset="0" stop-color="#fee6a0"/><stop offset="0.17" stop-color="#fed49c"/><stop offset="0.51" stop-color="#ffb695"/><stop offset="0.8" stop-color="#ffa391"/><stop offset="1" stop-color="#ff9c8f"/></linearGradient><linearGradient id="linear-gradient-2" x1="530.61" y1="127.78" x2="615.29" y2="127.78" gradientUnits="userSpaceOnUse"><stop offset="0" stop-color="#fee870"/><stop offset="0.08" stop-color="#fee97c"/><stop offset="0.24" stop-color="#ffec91"/><stop offset="0.43" stop-color="#ffeea0"/><stop offset="0.65" stop-color="#ffefa8"/><stop offset="1" stop-color="#ffefab"/></linearGradient><clipPath id="clip-path-2"><path class="cls-1" d="M37.52,22.61V232.94H601.33V93.33a70.72,70.72,0,0,0-70.72-70.72Z"/></clipPath><linearGradient id="linear-gradient-3" x1="-98.03" y1="215.3" x2="131.12" y2="215.3" xlink:href="#linear-gradient"/><linearGradient id="linear-gradient-4" x1="98.45" y1="-51.25" x2="327.6" y2="-51.25" xlink:href="#linear-gradient"/><linearGradient id="linear-gradient-5" x1="531.46" y1="63.73" x2="604.68" y2="136.96" xlink:href="#linear-gradient"/><linearGradient id="linear-gradient-6" x1="354.64" y1="82.91" x2="389.5" y2="117.78" xlink:href="#linear-gradient"/><linearGradient id="linear-gradient-7" x1="467.38" y1="52.36" x2="479.02" y2="64" xlink:href="#linear-gradient"/><linearGradient id="linear-gradient-8" x1="400.58" y1="156.8" x2="400.58" y2="367.28" xlink:href="#linear-gradient"/><linearGradient id="linear-gradient-9" x1="362.86" y1="181" x2="362.86" y2="263.39" gradientUnits="userSpaceOnUse"><stop offset="0" stop-color="#feda9d"/><stop offset="0.2" stop-color="#fed09b"/><stop offset="0.67" stop-color="#ffbd97"/><stop offset="1" stop-color="#ffb695"/></linearGradient><linearGradient id="linear-gradient-10" x1="559.02" y1="486.36" x2="636.95" y2="486.36" xlink:href="#linear-gradient-2"/><linearGradient id="linear-gradient-11" x1="529.55" y1="494.48" x2="592.43" y2="494.48" xlink:href="#linear-gradient-2"/><linearGradient id="linear-gradient-12" x1="498.16" y1="320.41" x2="517.28" y2="320.41" xlink:href="#linear-gradient-2"/><linearGradient id="linear-gradient-13" x1="0" y1="517.95" x2="118.6" y2="517.95" xlink:href="#linear-gradient-2"/><linearGradient id="linear-gradient-14" x1="83.02" y1="524.89" x2="161.48" y2="524.89" xlink:href="#linear-gradient-2"/></defs><title>illustration-1-screen</title><g id="_1" data-name="1"><g id="illustration"><g class="cls-2"><rect class="cls-3" x="37.52" width="604.09" height="658.24"/></g><path class="cls-4" d="M37.52,22.61V232.94H615.29V93.33a70.72,70.72,0,0,0-70.72-70.72Z"/><path class="cls-5" d="M530.61,22.61a70.72,70.72,0,0,1,70.72,70.72V232.94h14V93.33a70.72,70.72,0,0,0-70.72-70.72Z"/><g class="cls-6"><circle class="cls-7" cx="16.54" cy="215.3" r="114.57"/><circle class="cls-8" cx="213.02" cy="-51.25" r="114.57"/><circle class="cls-9" cx="568.07" cy="100.35" r="51.78"/><circle class="cls-10" cx="372.07" cy="100.35" r="24.65"/><circle class="cls-11" cx="473.2" cy="58.18" r="8.23"/><path class="cls-12" d="M398.5,47.39A2.49,2.49,0,1,1,396,44.9a2.49,2.49,0,0,1,2.49,2.49"/><path class="cls-12" d="M305.82,91.31a2.49,2.49,0,1,1-2.49-2.49,2.49,2.49,0,0,1,2.49,2.49"/><path class="cls-12" d="M151.86,163.23a2.49,2.49,0,1,1-2.49-2.49,2.49,2.49,0,0,1,2.49,2.49"/><path class="cls-12" d="M94.29,105.34a2.49,2.49,0,1,1-2.49-2.49,2.5,2.5,0,0,1,2.49,2.49"/><path class="cls-12" d="M89.31,33.34a2.49,2.49,0,1,1-2.49-2.49,2.5,2.5,0,0,1,2.49,2.49"/><path class="cls-12" d="M417.26,129.73a2.49,2.49,0,1,1-2.49-2.49,2.48,2.48,0,0,1,2.49,2.49"/><path class="cls-12" d="M490.62,94.84a2.49,2.49,0,1,1-2.49-2.49,2.49,2.49,0,0,1,2.49,2.49"/><path class="cls-12" d="M582.28,174.24a2.49,2.49,0,1,1-2.49-2.49,2.48,2.48,0,0,1,2.49,2.49"/><path class="cls-12" d="M521.18,39.22a2.49,2.49,0,1,1-2.49-2.49,2.49,2.49,0,0,1,2.49,2.49"/></g><g id="Teamwork---Web"><g id="Teamwork"><g id="Computer"><polygon id="Path_1134" data-name="Path 1134" class="cls-13" points="398.43 534.62 398.43 458.88 322.69 458.88 322.69 534.62 284.3 549.98 436.81 549.98 398.43 534.62"/><path id="Path_1647" data-name="Path 1647" class="cls-13" d="M175.51,180.32H555.15a8.57,8.57,0,0,1,8.57,8.57V465.63a8.57,8.57,0,0,1-8.57,8.57H175.51a8.57,8.57,0,0,1-8.57-8.57V188.89A8.57,8.57,0,0,1,175.51,180.32Z"/><path id="Path_1648" data-name="Path 1648" class="cls-14" d="M182,188.52H548.66a9.06,9.06,0,0,1,9.06,9.06V448.75a9.06,9.06,0,0,1-9.06,9.06H182a9.07,9.07,0,0,1-9.07-9.06V197.58A9.06,9.06,0,0,1,182,188.52Z"/></g><g id="Note"><path id="Path_1135" data-name="Path 1135" class="cls-15" d="M522.76,180.32s-7.66-22.94-19.24-22.94h-165s17,5,13.75,22.94Z"/><path id="Path_1136" data-name="Path 1136" class="cls-16" d="M317.06,157.46c21,0,150.45-1,170.41-.51l.75,0c6.21.16,10.51,0,10,1-4.12,8.24-11.34,33.55-11.77,58.34-.84,47.67,1.06,118.24,1.78,142.46a8.27,8.27,0,0,1-8.27,8.51H312.38a8.27,8.27,0,0,1-8.27-8.12c-.59-31.59-2.49-145.57.15-165.37C307.33,170.76,310.4,157.46,317.06,157.46Z"/><path id="Path_1137" data-name="Path 1137" class="cls-17" d="M282.77,337.6s-1.48,29.68,20.69,29.68H480.82S462.59,355.51,466,337.6Z"/><g id="Group_623" data-name="Group 623"><g id="Group_615" data-name="Group 615"><rect id="Rectangle_265" data-name="Rectangle 265" class="cls-12" x="329.34" y="181.77" width="128.96" height="1.54"/></g><g id="Group_616" data-name="Group 616"><rect id="Rectangle_266" data-name="Rectangle 266" class="cls-12" x="329.34" y="201.47" width="128.96" height="1.54"/></g><g id="Group_617" data-name="Group 617"><rect id="Rectangle_267" data-name="Rectangle 267" class="cls-12" x="329.34" y="221.17" width="128.96" height="1.54"/></g><g id="Group_618" data-name="Group 618"><rect id="Rectangle_268" data-name="Rectangle 268" class="cls-12" x="329.34" y="240.88" width="128.96" height="1.54"/></g><g id="Group_619" data-name="Group 619"><rect id="Rectangle_269" data-name="Rectangle 269" class="cls-12" x="329.34" y="260.58" width="128.96" height="1.54"/></g><g id="Group_620" data-name="Group 620"><rect id="Rectangle_270" data-name="Rectangle 270" class="cls-12" x="329.34" y="280.28" width="128.96" height="1.54"/></g><g id="Group_621" data-name="Group 621"><rect id="Rectangle_271" data-name="Rectangle 271" class="cls-12" x="329.34" y="299.98" width="128.96" height="1.54"/></g><g id="Group_622" data-name="Group 622"><rect id="Rectangle_272" data-name="Rectangle 272" class="cls-12" x="329.34" y="319.69" width="128.96" height="1.54"/></g></g><rect id="Rectangle_278" data-name="Rectangle 278" class="cls-18" x="327.29" y="181" width="71.13" height="82.39"/><rect id="Rectangle_279" data-name="Rectangle 279" class="cls-12" x="333.48" y="188.16" width="58.76" height="68.06"/><g id="Group_636" data-name="Group 636"><rect id="Rectangle_280" data-name="Rectangle 280" class="cls-19" x="360.3" y="181.01" width="1.54" height="79.85" transform="translate(-56.59 289.8) rotate(-40.82)"/></g><g id="Group_637" data-name="Group 637"><rect id="Rectangle_281" data-name="Rectangle 281" class="cls-19" x="321.14" y="220.13" width="79.85" height="1.54" transform="translate(-42.13 349.71) rotate(-49.18)"/></g></g><g id="Person"><g id="Group_625" data-name="Group 625"><path id="Path_1142" data-name="Path 1142" class="cls-14" d="M539.21,268s-10.75-10.74-1-11.26,26.62-2.55,25.08,7.17-2,13.65-5.63,14S539.21,268,539.21,268Z"/><g id="Group_624" data-name="Group 624"><path id="Path_1143" data-name="Path 1143" class="cls-13" d="M539.86,262s-8.73,22.26,5.07,21.83a14.37,14.37,0,0,0,12-6.5s2.92,1.12,3.65-4.91c.44-3.58-3.94-5.79-4.49-.17,0,0-3.3.8-3.63-4s-2.85-4.78-5.62-4.11S540.19,263.45,539.86,262Z"/><path id="Path_1144" data-name="Path 1144" class="cls-13" d="M558,276.62s1,9.75,3.74,14.36c0,0,3.2,3.33,5.92,4.31,3.31,1.18-13.34,27.35-18.15,18.68s-3.63-12.75-3.63-12.75,4.11-5.55,3.95-6.4-3.45-12.25-3.45-12.25S546.91,271.71,558,276.62Z"/></g></g><path id="Path_1145" data-name="Path 1145" class="cls-20" d="M637,570.4l-19.57,8v0c-1.16-2.29-41-81.49-44.15-88.65-15.64-35.7-14.16-95.32-14.16-95.32h40c10.32,26.48-1.53,82.39-1.53,82.39C617,486,637,570.4,637,570.4Z"/><path id="Path_1146" data-name="Path 1146" class="cls-21" d="M571.45,583.2c0,.33-7.58-.19-7.54.13a83,83,0,0,0,2.45,11.78H529.55l20-11.53a2.36,2.36,0,0,0,0-.25c-.07-7.31-3.09-85.92-6-98.64-2.95-12.88,4.41-90.54,4.41-90.54l44-.31c4.47,25.58-22,86-22,86C583.73,504.38,570.46,575.59,571.45,583.2Z"/><path id="Path_1147" data-name="Path 1147" class="cls-14" d="M529.55,595.11l20-11.53a2.36,2.36,0,0,0,0-.25h14.37a83,83,0,0,0,2.45,11.78Z"/><path id="Path_1148" data-name="Path 1148" class="cls-22" d="M542.52,306.5,561.8,291s19.45-3.41,25.08,32.58,12.28,70.8,12.28,70.8H548s4.61-27.64,0-37.36S532.46,309.75,542.52,306.5Z"/><path id="Path_1149" data-name="Path 1149" class="cls-13" d="M515.09,313.6,484,292.52h0c-3.32-2.65-7.37-6-8.25-7.17-1.54-2-5.63-9.72-7.17-7.67s-6.14,10.23-3.58,12.79,7.17,3.07,7.17,3.07l4.07,4.29,27.06,31.1c3.6,3.24,10-6.89,12.65-11.61A2.81,2.81,0,0,0,515.09,313.6Z"/><path id="Path_1150" data-name="Path 1150" class="cls-22" d="M570.5,303.26c.51,5.63-2.38,18.25-12.28,22-14.29,5.42-23.19,10-33.7,12.89-6,1.67-16.58-5.05-21.22-9.23L517.2,315s30.21-15,35.83-16.87S569.71,294.56,570.5,303.26Z"/><path id="Path_1151" data-name="Path 1151" class="cls-14" d="M604.14,595.68l13.25-17.3v0l13.3-5.44.12.22,7.94,13.34Z"/><path id="Path_1152" data-name="Path 1152" class="cls-23" d="M511.65,310.94s2.56,0,3.07,2.05c0,0,2-.51,2.56,2L504,329.88s-4.09-.52-3.07-2.56c0,0-3.58-1-2.56-3.07Z"/></g><g id="Person-2"><path id="Path_1138" data-name="Path 1138" class="cls-15" d="M321,234.57l0,0-11.63-12.14-7.68,7.68,12.69,14.05a21.43,21.43,0,0,0,6.7,7.85l8.47,6.22,3.32-4.51-8.24-6.17s14.32-2.19,19.46-9.17l3.32-4.52S336.12,241.45,321,234.57Z"/><path id="Path_1139" data-name="Path 1139" class="cls-15" d="M229.87,260.24l2.75-9.13-11.77-1-2.55,10.18a21.31,21.31,0,0,0-2.47,10.27v10.51h5.61l.08-10.29S231.77,281,240.44,281h5.61S231.91,273.38,229.87,260.24Z"/><path id="Path_1140" data-name="Path 1140" class="cls-13" d="M267.42,161c-4.86,25.28-32,80.4-37.05,99.2l-14.56-4.45s6.07-21.23,7.89-33.16,8.9-39.63,13.75-49.74c0,0-71.38,26.49-61.67-26.69C175.78,146.2,272.27,135.77,267.42,161Z"/><path id="Path_1141" data-name="Path 1141" class="cls-13" d="M174.28,148.76s-4.57,30.2,8.37,31.61,48.53-2.63,53.58,2.43,24.07,25.07,42.26,36.39S306.6,240,306.6,240l12.33-9.5s-39.22-48.13-47.11-57-15.22-23.42-29-24.23S176.83,148.76,174.28,148.76Z"/><path id="Path_1153" data-name="Path 1153" class="cls-13" d="M199.87,37.21c6.56-.63,11.86,4.51,12.57,5.22,5.65,5.63,5.07,13.84,4.11,19.52-1.28,7.58,5.42,9,8.37,15.13,2.78,5.82-.5,14.88-6.61,18.68-8.4,5.24-20-.77-25.87-6.25-12.54-11.75-8.41-30.34-7.8-32.85S189,38.25,199.87,37.21Z"/><path id="Path_1154" data-name="Path 1154" class="cls-14" d="M210.25,46.2s8.2,23-3.62,21.44c-6.92-1-10.35-7.32-10.35-7.32s-3.24.62-4-3.35c-.51-2.64,3-5.07,4.24-.29,0,0,1.4,0,2.6-3.13.75-2,1-4.5,3.77-3.89S210,47.68,210.25,46.2Z"/><path id="Path_1155" data-name="Path 1155" class="cls-14" d="M208.62,66.57s-6.34,9.09-5.12,14.35-19.65,7.37-15.13-2.29,7.87-11.87,11.87-21S208.62,66.57,208.62,66.57Z"/><path id="Path_1156" data-name="Path 1156" class="cls-14" d="M212.66,75.07c-3.95,1-6.19,3.93-5.29,7.9,3.73,16.43,13.1,55.45,18.1,55.46,6.33,0,29.66,1.12,29.66,1.12l3.58-11.26-28.14,1-9.21-42.47c-.63-3.54-.84-7.42-3.68-9.61A9.15,9.15,0,0,0,212.66,75.07Z"/><path id="Path_1157" data-name="Path 1157" class="cls-24" d="M212.5,75.09a7.47,7.47,0,0,1,8.54,6c3,16.57,19.29,38.53,14.7,40.5-5.82,2.5-23.55-.51-23.55-.51l-5.86-37.38a7.48,7.48,0,0,1,6.17-8.65Z"/><path id="Path_1158" data-name="Path 1158" class="cls-24" d="M221.87,104.75c-10.75,22,2.56,44,2.56,44H174.28s13.81-22,7.67-32.24S168.14,86.33,170.18,80.7c1.51-4.15,11.34-5.52,16.41-6,1.83-.15,3-.19,3-.19l17.51-.36,3.47.36c3.07.52,4.29.89,5.44,3.1C220.36,86,226.44,95.39,221.87,104.75Z"/><path id="Path_1160" data-name="Path 1160" class="cls-14" d="M266.9,126.75s7.17-4.09,7.68-5.63,3.07.52.51,3.07a20,20,0,0,1-4.6,3.59Z"/><g id="Laptop"><polygon id="Path_1159" data-name="Path 1159" class="cls-25" points="193.34 154.13 250.07 154.13 273.81 137.23 217.88 138.04 193.34 154.13"/><polyline id="Path_1161" data-name="Path 1161" class="cls-26" points="273.81 137.23 250.07 154.13 250.07 101.62 272.86 80.95 273.81 137.23"/></g><path id="Path_1162" data-name="Path 1162" class="cls-14" d="M196.79,137s9.73,2.56,11.26,2,6.66-3.59,10.24-2a55.35,55.35,0,0,1,8,4.76,1,1,0,0,1,.41,1,1,1,0,0,1-.71.8,7.44,7.44,0,0,1-3.08.11,23.55,23.55,0,0,0-11.77,1.54c-2.66,1.14-17.91-2.05-17.91-2.05Z"/><path id="Path_1163" data-name="Path 1163" class="cls-14" d="M177,76.63a7.47,7.47,0,0,0-8.54,6c-3,16.57-8,53.38-3.44,55.35,5.82,2.5,32.76,6.14,32.76,6.14l2.56-6.65-24.65-8.72,7.49-43.51A7.48,7.48,0,0,0,177,76.63Z"/><path id="Path_1164" data-name="Path 1164" class="cls-24" d="M177,76.63a7.47,7.47,0,0,0-8.54,6c-3,16.57-19.29,38.54-14.69,40.51,5.81,2.5,23.54-.51,23.54-.51l5.86-37.39A7.46,7.46,0,0,0,177,76.63Z"/><path id="Path_1165" data-name="Path 1165" class="cls-14" d="M269.63,127.21a2,2,0,0,1,1.88-1.63c1.81-.08,4.61.13,4.61,2.2,0,3.07-.52,8.19-4.61,7.67C268.45,135.07,269.11,129.84,269.63,127.21Z"/><path id="Path_1166" data-name="Path 1166" class="cls-14" d="M205.49,92c-5.4-.45-16.34-14-18.9-17.21,1.83-.15,3-.19,3-.19l17.51-.36C211.62,83.07,211.37,92.45,205.49,92Z"/></g><g id="Person-3"><path id="Path_1130" data-name="Path 1130" class="cls-27" d="M154.21,283.34s6.95-5.74,7,2.37l-8.77,18.76-11.81,1.38Z"/><polygon id="Path_1131" data-name="Path 1131" class="cls-13" points="147.66 291.27 124.64 327.61 87.28 351.15 95.72 366.25 134.36 340.91 157.39 297.93 147.66 291.27"/><g id="Object"><polygon id="Path_1167" data-name="Path 1167" class="cls-22" points="202.42 329.14 144.08 312.25 144.08 231.69 202.42 248.58 202.42 329.14"/></g><path id="Path_1168" data-name="Path 1168" class="cls-13" d="M112.64,302.44c5.68.63,9.26,5.94,9.73,6.66,3.78,5.78,1.83,12.64,0,17.28-2.44,6.2,3,8.57,4.39,14.32,1.32,5.43-3.07,12.52-8.93,14.66-8.06,2.94-16.84-4.23-20.82-9.91-8.53-12.2-1.71-27.22-.76-29.25S103.27,301.39,112.64,302.44Z"/><path id="Path_1169" data-name="Path 1169" class="cls-14" d="M117.11,308s8.2,23.05-3.62,21.44c-6.92-.95-10.35-7.32-10.35-7.32s-3.24.62-4-3.35c-.51-2.63,3-5.06,4.24-.29,0,0,1.4,0,2.6-3.12.75-2,1-4.5,3.77-3.9S116.82,309.43,117.11,308Z"/><path id="Path_1170" data-name="Path 1170" class="cls-14" d="M115.48,328.32s-6.34,9.1-5.12,14.35S90.71,350,95.23,340.38s7.87-11.86,11.87-21S115.48,328.32,115.48,328.32Z"/><path id="Path_1171" data-name="Path 1171" class="cls-14" d="M193.72,292.81s8.19-3.75,6.14,4.09l-13.3,15.87-11.77-1.71Z"/><path id="Path_1172" data-name="Path 1172" class="cls-28" d="M21.64,589.27c-1,3.26-2.21,10.67,5.25,16.73,9.89,8,6.44,16.32,6.44,16.32L0,605.06S4,586.71,10.28,583l.18-.54c2.23-6.74,25-74.18,48-86.35,0,0-4.47-55.35,20.95-82.48l39.16,6.85s-29,73.05-37.49,87-56.7,69.43-58.82,80.12A11.55,11.55,0,0,0,21.64,589.27Z"/><path id="Path_1173" data-name="Path 1173" class="cls-29" d="M161.48,634.32H123.27s-6.14-17.74-2.72-24.22c0,0-.09-.36-.24-1-2.09-9.1-16.89-76.33-3.86-98.25,0,0-17.4-15-33.43-95.19l44.35-.17s14.33,76.93,14.33,93.31-12.11,89.3-8.36,99.54c0,0,0,.28.12.76.55,2.92,3.22,13.21,14,14.67C160.12,625.45,161.48,634.32,161.48,634.32Z"/><path id="Path_1174" data-name="Path 1174" class="cls-13" d="M191.85,307s-30.54,36.84-32.41,38-31.56,15-31.56,15a.66.66,0,0,0,0,.09c-.35,1.85-5.7,31.76,2.24,67.12,0,0-30-9.81-59.71-1.71,0,0,15.35-18.76,11.6-31.73s-27.3-41.62,14-51.52l27.15-3.73,30.68-8.89L185,299.29Z"/><path id="Path_1179" data-name="Path 1179" class="cls-13" d="M117,303.26c-3.07-4.79-18.73-3.95-27,4.38-6,6.1-3.39,8.63-9.89,17.66-6.93,9.64-16.56,8.62-20.72,16.12-5,9-4.7,22.57,6.14,30.71,12.41,9.32,37.06,8.24,40,.78,2.52-6.5-8.38-12.5-5.89-23.17,1.52-6.54,6.56-8.34,6.4-14.22-.18-6.51-2-6.67-1.31-10.6.86-4.76,5.88-4.83,10.92-13.21C116,311.07,118.85,306.18,117,303.26Z"/><path id="Path_1180" data-name="Path 1180" class="cls-13" d="M161.48,634.32H123.27s-6.14-17.74-2.73-24.22l12.92-1c.54,2.92,3.22,13.21,14,14.68C160.12,625.45,161.48,634.32,161.48,634.32Z"/><path id="Path_1181" data-name="Path 1181" class="cls-13" d="M33.32,622.32,0,605.06S4,586.71,10.28,583l11.35,6.32c-1,3.26-2.2,10.67,5.26,16.73C36.78,614,33.32,622.32,33.32,622.32Z"/></g></g></g></g></g></svg>