<?xml version="1.0" encoding="utf-8"?>
<!-- Generator: Adobe Illustrator 23.0.3, SVG Export Plug-In . SVG Version: 6.00 Build 0)  -->
<svg version="1.1" id="Layer_1" xmlns="http://www.w3.org/2000/svg" xmlns:xlink="http://www.w3.org/1999/xlink" x="0px" y="0px"
	 viewBox="0 0 90 90.2" style="enable-background:new 0 0 90 90.2;" xml:space="preserve">
<style type="text/css">
	.st0{clip-path:url(#SVGID_2_);}
	.st1{fill:url(#SVGID_3_);}
	.st2{fill:#3B3E3F;}
</style>
<title>logo-solid-software</title>
<g>
	<g id="_1">
		<g>
			<defs>
				<path id="SVGID_1_" d="M20,45.2h10.2c0.2,0,0.3-0.1,0.3-0.3c0-0.1-0.1-0.3-0.2-0.3c-1.6-0.3-3.2-0.8-4.7-1.6
					c-0.3-0.2-0.7-0.4-1-0.6c-0.7-0.4-1.3-0.9-1.9-1.4c-0.3-0.3-0.6-0.5-0.8-0.8c-2.1-2.2-3.2-5.2-3.1-8.3c0-0.3,0-0.6,0-0.8
					c0.1-0.8,0.2-1.6,0.4-2.4c0.3-1.1,0.7-2.1,1.3-3c0.8-1.5,2-2.7,3.3-3.8c0.4-0.4,0.9-0.7,1.4-1c0.3-0.2,0.5-0.3,0.8-0.4
					c1.2-0.7,2.6-1.1,4-1.3c0.6-0.1,1.1-0.1,1.7-0.1h38.8v26h-8.8c-0.2,0-0.3,0.1-0.3,0.3c0,0.1,0.1,0.3,0.3,0.3
					c0.6,0.1,1.2,0.3,1.7,0.5l0.6,0.2c0.6,0.2,1.1,0.5,1.7,0.8c0.3,0.2,0.6,0.4,0.9,0.6c0.6,0.4,1.1,0.9,1.6,1.4
					c0.2,0.3,0.4,0.5,0.7,0.8c0.8,1.1,1.5,2.4,1.9,3.7c0.1,0.3,0.2,0.7,0.3,1c0.2,0.7,0.3,1.4,0.3,2.1c0,0.3,0,0.7,0,1.1
					c0,1.9-0.4,3.8-1.2,5.6c-0.1,0.3-0.2,0.5-0.3,0.8c-0.4,0.7-0.8,1.4-1.3,2.1c-0.2,0.2-0.3,0.4-0.5,0.6c-0.7,0.8-1.6,1.6-2.5,2.2
					c-0.5,0.3-1,0.6-1.5,0.8c-0.8,0.4-1.6,0.6-2.5,0.8c-0.9,0.2-1.8,0.3-2.8,0.3H20V45.2z M70.4,7.8H31.6c-4.4,0-8.6,1.2-12.4,3.5
					c-3.5,2.2-6.5,5.1-8.6,8.7c-1.4,2.4-2.2,5.2-2.1,8l0.2,54.4h49.9c4.6,0.1,9.1-1.2,13-3.7c3.5-2.3,6.4-5.5,8.3-9.2
					c1.1-2.3,1.7-4.8,1.7-7.3V7.8H70.4z"/>
			</defs>
			<clipPath id="SVGID_2_">
				<use xlink:href="#SVGID_1_"  style="overflow:visible;"/>
			</clipPath>
			<g class="st0">
				
					<linearGradient id="SVGID_3_" gradientUnits="userSpaceOnUse" x1="-978.4138" y1="-6844.4956" x2="-977.7038" y2="-6844.4956" gradientTransform="matrix(103.0397 59.49 -59.49 103.0397 -306355.5625 763484.375)">
					<stop  offset="0" style="stop-color:#FEE870"/>
					<stop  offset="3.000000e-02" style="stop-color:#FEE16E"/>
					<stop  offset="0.28" style="stop-color:#FEAA62"/>
					<stop  offset="0.5" style="stop-color:#FF7F59"/>
					<stop  offset="0.71" style="stop-color:#FF6052"/>
					<stop  offset="0.88" style="stop-color:#FF4D4E"/>
					<stop  offset="1" style="stop-color:#FF464C"/>
				</linearGradient>
				<polygon class="st1" points="-23.8,63.7 26.7,-23.8 113.8,26.4 63.3,114 				"/>
			</g>
		</g>
		<polygon class="st2" points="81.2,78.3 82.6,78.3 82.6,82.4 83.2,82.4 83.2,78.3 84.6,78.3 84.6,77.8 81.2,77.8 		"/>
		<path class="st2" d="M89.3,77.8h-0.8L87.8,80c-0.2,0.6-0.4,1.1-0.5,1.5l0,0c-0.1-0.5-0.3-1-0.5-1.5L86,77.8h-0.8L85,82.4h0.6
			l0.1-2c0-0.7,0.1-1.5,0.1-2l0,0c0.1,0.5,0.3,1.1,0.5,1.8l0.8,2.2h0.4l0.8-2.2c0.2-0.6,0.4-1.2,0.6-1.7l0,0c0,0.6,0,1.3,0.1,2
			l0.1,2h0.6L89.3,77.8z"/>
	</g>
</g>
</svg>
