<svg xmlns="http://www.w3.org/2000/svg" xmlns:xlink="http://www.w3.org/1999/xlink" viewBox="0 0 137.62 137.82"><defs><style>.cls-1{fill:none;}.cls-2{clip-path:url(#clip-path);}.cls-3{fill:url(#linear-gradient);}.cls-4{fill:#3b3e3f;}</style><clipPath id="clip-path"><path class="cls-1" d="M43.83,69H54a.28.28,0,0,0,.28-.28.27.27,0,0,0-.23-.28,18,18,0,0,1-4.65-1.57,11.59,11.59,0,0,1-1-.58,14.26,14.26,0,0,1-1.87-1.37c-.28-.26-.56-.52-.82-.8a11.61,11.61,0,0,1-3.14-8.27c0-.28,0-.56,0-.83a11.57,11.57,0,0,1,.41-2.41,12.67,12.67,0,0,1,1.3-3.05,13.46,13.46,0,0,1,3.29-3.79,15.85,15.85,0,0,1,1.4-1q.38-.23.75-.42a12,12,0,0,1,4-1.27,11.83,11.83,0,0,1,1.7-.12h38.8V69H85.42a.28.28,0,0,0-.28.27.32.32,0,0,0,.25.3,15.32,15.32,0,0,1,1.74.52l.58.23a12.37,12.37,0,0,1,1.67.83q.45.28.87.6a9.94,9.94,0,0,1,1.55,1.42c.23.26.45.53.66.82a12.8,12.8,0,0,1,1.89,3.67c.1.32.19.65.27,1a12.75,12.75,0,0,1,.31,2.07c0,.35,0,.71,0,1.07a13.67,13.67,0,0,1-1.16,5.57c-.11.25-.22.51-.35.75a12.15,12.15,0,0,1-1.33,2.09c-.16.21-.34.42-.52.62A12.31,12.31,0,0,1,89.1,93a10.74,10.74,0,0,1-1.49.81,11.29,11.29,0,0,1-2.49.78,13.81,13.81,0,0,1-2.78.26H43.83ZM94.16,31.64H55.36A23.39,23.39,0,0,0,43,35.12a25,25,0,0,0-8.56,8.71,15.72,15.72,0,0,0-2.14,8l.18,54.38H82.34a23.3,23.3,0,0,0,13-3.69,23.54,23.54,0,0,0,8.31-9.23,16.34,16.34,0,0,0,1.74-7.33V31.64Z"/></clipPath><linearGradient id="linear-gradient" x1="-347.4" y1="7274.48" x2="-346.69" y2="7274.48" gradientTransform="matrix(0, 118.98, 118.98, 0, -865436.37, 41359.85)" gradientUnits="userSpaceOnUse"><stop offset="0" stop-color="#fee870"/><stop offset="0.03" stop-color="#fee16e"/><stop offset="0.28" stop-color="#feaa62"/><stop offset="0.5" stop-color="#ff7f59"/><stop offset="0.71" stop-color="#ff6052"/><stop offset="0.88" stop-color="#ff4d4e"/><stop offset="1" stop-color="#ff464c"/></linearGradient></defs><title>logo-solid-software</title><g id="Layer_2" data-name="Layer 2"><g id="_1" data-name="1"><g class="cls-2"><rect class="cls-3" x="18.27" y="18.63" width="101.09" height="100.55" transform="translate(-25.27 94.04) rotate(-60)"/></g><polygon class="cls-4" points="104.96 102.09 106.35 102.09 106.35 106.18 106.95 106.18 106.95 102.09 108.36 102.09 108.36 101.59 104.96 101.59 104.96 102.09"/><path class="cls-4" d="M113.14,101.59h-.75l-.82,2.22c-.2.58-.37,1.08-.48,1.54h0c-.12-.47-.28-1-.47-1.54l-.78-2.22h-.76l-.32,4.59h.57l.12-2c0-.69.08-1.46.09-2h0c.13.54.32,1.14.53,1.78l.75,2.19h.45l.81-2.23c.23-.63.42-1.2.58-1.74h0c0,.57,0,1.34.07,2l.11,2h.58Z"/></g></g></svg>