<svg xmlns="http://www.w3.org/2000/svg" xmlns:xlink="http://www.w3.org/1999/xlink" viewBox="0 0 617.52 643.33"><defs><style>.cls-1{fill:none;}.cls-2{clip-path:url(#clip-path);}.cls-3{fill:url(#linear-gradient);}.cls-4{clip-path:url(#clip-path-2);}.cls-5{fill:#5b5b5b;}.cls-6{fill:url(#linear-gradient-2);}.cls-7{fill:url(#linear-gradient-3);}.cls-8{fill:url(#linear-gradient-4);}.cls-9{fill:url(#linear-gradient-5);}.cls-10,.cls-20{fill:#fff;}.cls-11{fill:url(#linear-gradient-6);}.cls-12{fill:url(#linear-gradient-7);}.cls-13{fill:url(#linear-gradient-8);}.cls-14,.cls-19{fill:#3b3e3f;}.cls-15{fill:#e9d6b8;}.cls-16{fill:url(#linear-gradient-9);}.cls-17{fill:url(#linear-gradient-10);}.cls-18{fill:#ffc371;}.cls-19,.cls-20{fill-rule:evenodd;}.cls-21{fill:#fee39f;}.cls-22{fill:#fff3d9;}.cls-23{fill:#ff9c8f;}.cls-24{fill:#ffb495;}.cls-25{fill:#fed49c;}.cls-26{fill:#ffefa9;}.cls-27{fill:#194866;}</style><clipPath id="clip-path"><rect class="cls-1" x="13.44" width="604.09" height="643.33"/></clipPath><linearGradient id="linear-gradient" x1="13.44" y1="321.67" x2="617.52" y2="321.67" gradientUnits="userSpaceOnUse"><stop offset="0" stop-color="#fee6a0"/><stop offset="0.17" stop-color="#fed49c"/><stop offset="0.51" stop-color="#ffb695"/><stop offset="0.8" stop-color="#ffa391"/><stop offset="1" stop-color="#ff9c8f"/></linearGradient><clipPath id="clip-path-2"><path class="cls-1" d="M30.85,104.18V154a85.46,85.46,0,0,0,85.46,85.46h408a70.38,70.38,0,0,0,70.38-70.38V99.87a70.72,70.72,0,0,0-70.72-70.72H105.88A75,75,0,0,0,30.85,104.18Z"/></clipPath><linearGradient id="linear-gradient-2" x1="9.87" y1="107.68" x2="23.74" y2="107.68" xlink:href="#linear-gradient"/><linearGradient id="linear-gradient-3" x1="524.79" y1="70.27" x2="598.01" y2="143.5" xlink:href="#linear-gradient"/><linearGradient id="linear-gradient-4" x1="347.97" y1="89.45" x2="382.83" y2="124.32" xlink:href="#linear-gradient"/><linearGradient id="linear-gradient-5" x1="460.7" y1="58.9" x2="472.35" y2="70.54" xlink:href="#linear-gradient"/><linearGradient id="linear-gradient-6" x1="510.91" y1="134.32" x2="595.59" y2="134.32" gradientUnits="userSpaceOnUse"><stop offset="0" stop-color="#fee870"/><stop offset="0.08" stop-color="#fee97c"/><stop offset="0.24" stop-color="#ffec91"/><stop offset="0.43" stop-color="#ffeea0"/><stop offset="0.65" stop-color="#ffefa8"/><stop offset="1" stop-color="#ffefab"/></linearGradient><linearGradient id="linear-gradient-7" x1="57.26" y1="240.63" x2="608.62" y2="240.63" xlink:href="#linear-gradient-6"/><linearGradient id="linear-gradient-8" x1="517.61" y1="202.27" x2="593.43" y2="202.27" gradientUnits="userSpaceOnUse"><stop offset="0" stop-color="#ffefab"/><stop offset="0.13" stop-color="#ffefab"/><stop offset="1" stop-color="#ffefab"/></linearGradient><linearGradient id="linear-gradient-9" x1="54.85" y1="397.64" x2="81.87" y2="397.64" xlink:href="#linear-gradient-6"/><linearGradient id="linear-gradient-10" x1="71.71" y1="397" x2="113.79" y2="397" xlink:href="#linear-gradient-6"/></defs><title>page 2</title><g id="Layer_2" data-name="Layer 2"><g id="_3" data-name="3"><g id="illustration"><g class="cls-2"><rect class="cls-3" x="13.44" width="604.09" height="643.33"/></g><g class="cls-4"><path class="cls-5" d="M30.85,104.57v48.94a86,86,0,0,0,86,86h427.8a64,64,0,0,0,64-64V99.87A70.72,70.72,0,0,0,537.9,29.15H106.26A75.42,75.42,0,0,0,30.85,104.57Z"/><path class="cls-6" d="M9.87,107.27a115.44,115.44,0,0,1,13.87.83"/><circle class="cls-7" cx="561.4" cy="106.88" r="51.78"/><circle class="cls-8" cx="365.4" cy="106.88" r="24.65"/><circle class="cls-9" cx="466.53" cy="64.72" r="8.23"/><path class="cls-10" d="M391.83,53.93a2.49,2.49,0,1,1-2.49-2.49,2.5,2.5,0,0,1,2.49,2.49"/><path class="cls-10" d="M299.15,97.85a2.49,2.49,0,1,1-2.49-2.49,2.49,2.49,0,0,1,2.49,2.49"/><path class="cls-10" d="M145.19,169.77a2.49,2.49,0,1,1-2.49-2.49,2.5,2.5,0,0,1,2.49,2.49"/><path class="cls-10" d="M87.62,111.88a2.49,2.49,0,1,1-2.49-2.49,2.5,2.5,0,0,1,2.49,2.49"/><path class="cls-10" d="M82.64,39.88a2.5,2.5,0,1,1-2.5-2.49,2.5,2.5,0,0,1,2.5,2.49"/><path class="cls-10" d="M410.59,136.27a2.49,2.49,0,1,1-2.49-2.49,2.49,2.49,0,0,1,2.49,2.49"/><path class="cls-10" d="M484,101.38a2.49,2.49,0,1,1-2.49-2.49,2.49,2.49,0,0,1,2.49,2.49"/><path class="cls-10" d="M575.61,180.78a2.49,2.49,0,1,1-2.49-2.49,2.48,2.48,0,0,1,2.49,2.49"/><path class="cls-10" d="M514.51,45.76A2.49,2.49,0,1,1,512,43.27a2.5,2.5,0,0,1,2.49,2.49"/><path class="cls-11" d="M510.91,29.15a70.72,70.72,0,0,1,70.72,70.72V239.48h0a14,14,0,0,0,14-14V99.87a70.72,70.72,0,0,0-70.72-70.72Z"/><path class="cls-12" d="M608.62,223H57.26s22.47,35.75,24,35.24,527.36-8.68,527.36-8.68Z"/><path class="cls-13" d="M581.63,172.39c0,3.63-6.83,50.62-61.47,50.62-9.71,0,11.49,9.19,11.49,9.19l48.47,1.54,13.31-51.07S581.63,165.65,581.63,172.39Z"/></g></g><path class="cls-14" d="M94.27,216.92c0,10-20.26,143.38-85.76,77.08-33.7-34.1,43.4-30,46.43-59.81,1-9.94,7.24-45.95,19.45-18.1C78.71,225.93,94.27,206.93,94.27,216.92Z"/><path class="cls-10" d="M48.15,219.17S51,217.66,43,202.82s-8-14.74-23.41-34.92l15.53,35.74S41.65,217.07,48.15,219.17Z"/><path class="cls-14" d="M62.68,237.92,40.31,196.45,39.26,194l-12.7,5.62s17.69,31.84,18.93,33.24,8.4,14.85,9.26,17.42,6.66,14.88,14.8,10.36S62.68,237.92,62.68,237.92Z"/><path class="cls-10" d="M27.49,179.06c-3.95-7-2.28-11.69-2.8-15a54.32,54.32,0,0,1-.51-6.86c-2,3-.81,5.31-1.1,6.91s0,1.06-1.58-1.34c-.9-1.36.1-5.06.41-7.51a6.53,6.53,0,0,0-.18-3.16,31.94,31.94,0,0,0-2.05,6.32,38.81,38.81,0,0,0-.66,9.38c.28,1.77,2.77,6.53,5.08,9.65C26.7,181,30.34,184.1,27.49,179.06Z"/><path class="cls-10" d="M117,263.93s2.53-2,13,11.22,22.83,35.3,22.83,35.3l-26.7-28.39S116.35,270.73,117,263.93Z"/><path class="cls-14" d="M105.65,243.24l29.26,36.94,1.89,1.95-10.18,9.44s-22.27-28.83-23.07-30.52S92.79,247.9,91.2,245.66C86,238.29,82,236.59,83.37,236,91.82,232.39,105.65,243.24,105.65,243.24Z"/><path class="cls-10" d="M145.82,298.82c4.87,6.4,9.84,6.71,12.66,8.49a51.55,51.55,0,0,0,6.1,3.18c-3.54.65-5.19-1.35-6.77-1.72s-1-.43.6,2c.9,1.37,4.68,1.91,7.07,2.59a6.49,6.49,0,0,1,2.82,1.42,32,32,0,0,1-6.61-.61,38.53,38.53,0,0,1-8.88-3.11c-1.52-1-4.91-5.12-6.86-8.47C143.74,298.78,142.31,294.21,145.82,298.82Z"/><path class="cls-15" d="M68.21,477.32l-.77,22.16s-8.71,9.45-11.82,10.92-2.63.13-2.4-.64,5.54-6.23,6.48-9.3,0-22,.21-22.95S68.21,477.32,68.21,477.32Z"/><path class="cls-15" d="M104.69,479.17s3.4,12.43,3.73,16.66-.44,5.6.81,6.91,10.08,11.7,12.1,11.66a1.9,1.9,0,0,0,2-2s-6.92-7.93-8-11-1.82-20.18-1.87-21.91S104.69,479.17,104.69,479.17Z"/><path class="cls-16" d="M81.87,322.19l-5.32,80.24-7,77.49-11.88.23s1.35-78.38.56-85.09-7.39-61.25.21-74.45S81.87,322.19,81.87,322.19Z"/><path class="cls-17" d="M99,313s8.64,42.63,9.32,65.71,5.1,90.51,5.1,90.51l.35,11.8-9.19,0L87.74,395.1l-16-79Z"/><path class="cls-14" d="M94.12,214.55a17,17,0,1,1-17-17.26A17.14,17.14,0,0,1,94.12,214.55Z"/><path class="cls-10" d="M74.13,219.78s1.62,9.24.27,11.8-10.54,8.47-11.89,10.27,2.71,15.65,15.94,13.6S97.18,247,97.18,244.91s6.13-5.63,1.81-7.17-11.35-2.57-13.24-4.62a14.65,14.65,0,0,1-3-12.57C84.13,215.16,74.13,219.78,74.13,219.78Z"/><path class="cls-10" d="M81.33,201.37c-.28-.07-.56-.13-.85-.18-.58,3.17-3.24,6.92-7.35,9.87a26.05,26.05,0,0,1-3,1.87v3c0,4.4,3.93,8,8.78,8s8.78-3.57,8.78-8v-6.72A18,18,0,0,1,81.33,201.37Z"/><path class="cls-18" d="M96.24,314.42,56,325.54l6.29-35.08-1.43-41.14s8.1,3,15.2,3.39c4.65.28,14.59-3.39,14.59-3.39Z"/><path class="cls-14" d="M55.34,246.91s3.28,23,3.79,32.24c.94,16.69-14.56,33.4-15.37,38.79s4.84,10.48,4.84,10.48,3.51,2.05,5.4,2.31,5.5-1.47,6.76-7.7c1.55-7.7,6.34-34.21,7.29-39,1.35-6.8.27-26.69,1.35-29.26s5-10.9,4.46-13S69.4,236,69.4,236,57.5,242,55.34,246.91Z"/><path class="cls-14" d="M92.7,235.27s-5.26,2.12-6.88,2.89-.82,9.24,0,10.39,2.22,27.14,2.43,33.3,1,30.41,2,34.83.41,9.62,5.27,11.36,14-6.41,14-6.41-6.68-13-7.89-18.16-3.87-11.81-4.27-19.7,1.33-20,2.81-26.17c1.66-7,2.45-16.55,2.86-17.71S94.33,235.85,92.7,235.27Z"/><path class="cls-14" d="M67.69,498.33a4.61,4.61,0,0,1,.46,2.79c-.24,1.15-1.39,4.52-1.39,4.52l-2.26.91.07-1.54s-4.25,4.53-6.33,5.83-6.47,4.56-8.87,3.66a1.39,1.39,0,0,1-.76-1s4-3.95,4.65-4.52,2,.62,3.66-.3a61.64,61.64,0,0,0,7.76-6.38A24.52,24.52,0,0,0,67.69,498.33Z"/><path class="cls-14" d="M108.47,499.84a7.44,7.44,0,0,0-.15,2.87,13.43,13.43,0,0,0,1.2,3l2.06,1a53.78,53.78,0,0,0,5.85,5.71c1.93,1.3,6,4.56,8.21,3.66a1.44,1.44,0,0,0,.73-1s-3.7-4-4.28-4.53-1.86.62-3.4-.3a56.81,56.81,0,0,1-7.15-6.38A39.45,39.45,0,0,1,108.47,499.84Z"/><g id="Teamwork---Web"><g id="Teamwork"><g id="Computer"><polygon id="Path_1134" data-name="Path 1134" class="cls-19" points="300.35 499.18 300.35 442.25 243.42 442.25 243.42 499.18 214.58 510.71 329.2 510.71 300.35 499.18"/><path id="Path_1647" data-name="Path 1647" class="cls-19" d="M132.81,272.7H418.15a6.45,6.45,0,0,1,6.44,6.44V447.32a6.45,6.45,0,0,1-6.44,6.44H132.81a6.44,6.44,0,0,1-6.44-6.44V279.14A6.44,6.44,0,0,1,132.81,272.7Z"/><path id="Path_1648" data-name="Path 1648" class="cls-20" d="M137.69,278.86H413.26a6.81,6.81,0,0,1,6.82,6.81v149a6.81,6.81,0,0,1-6.82,6.81H137.69a6.81,6.81,0,0,1-6.81-6.81v-149A6.81,6.81,0,0,1,137.69,278.86Z"/><path class="cls-10" d="M407.13,441.44H143.82a12.94,12.94,0,0,1-12.94-12.94v-130h289.2V428.5A12.94,12.94,0,0,1,407.13,441.44Z"/><rect class="cls-21" x="137.25" y="319" width="139.98" height="78.5"/><rect class="cls-22" x="137.25" y="398.03" width="139.98" height="38.35"/><rect class="cls-23" x="280.07" y="319" width="134.55" height="36.89"/><path class="cls-21" d="M417.16,278.9H133.76a2.8,2.8,0,0,0-2.88,2.71v16.94H420.05V281.61A2.81,2.81,0,0,0,417.16,278.9Z"/><path class="cls-24" d="M137.05,284.19a1.75,1.75,0,1,1-1.75-1.75A1.75,1.75,0,0,1,137.05,284.19Z"/><path class="cls-24" d="M142.2,284.19a1.75,1.75,0,1,1-1.76-1.75A1.75,1.75,0,0,1,142.2,284.19Z"/><path class="cls-24" d="M147.3,284.19a1.75,1.75,0,1,1-1.75-1.75A1.75,1.75,0,0,1,147.3,284.19Z"/><rect class="cls-10" x="154.7" y="288.4" width="226.01" height="7.6"/><polygon class="cls-24" points="135.9 294.63 133.15 291.87 135.9 289.12 136.92 290.14 135.19 291.87 136.92 293.6 135.9 294.63"/><rect class="cls-24" x="134.78" y="291.14" width="5.09" height="1.45"/><polygon class="cls-24" points="147.57 294.63 146.55 293.6 148.28 291.87 146.55 290.14 147.57 289.12 150.32 291.87 147.57 294.63"/><rect class="cls-24" x="143.6" y="291.14" width="5.09" height="1.45"/><rect class="cls-24" x="383.67" y="288.4" width="22.2" height="6.78"/><rect class="cls-21" x="166.32" y="307.4" width="22.46" height="2.43"/><rect class="cls-21" x="192.08" y="307.4" width="22.45" height="2.43"/><rect class="cls-21" x="217.84" y="307.4" width="22.46" height="2.43"/><rect class="cls-21" x="243.61" y="307.4" width="22.45" height="2.43"/><rect class="cls-21" x="269.37" y="307.4" width="22.45" height="2.43"/><rect class="cls-21" x="377.21" y="303.34" width="36.26" height="1.82"/><rect class="cls-21" x="384.9" y="307.7" width="28.57" height="1.82"/><rect class="cls-23" x="137.25" y="305.37" width="23.74" height="6.49"/><rect class="cls-23" x="143.83" y="403.4" width="50.65" height="2.52"/><rect class="cls-21" x="143.83" y="408.8" width="122.89" height="1.89"/><rect class="cls-21" x="143.3" y="413.22" width="107.3" height="1.89"/><rect class="cls-23" x="142.88" y="420.68" width="24.63" height="6.73"/><rect class="cls-10" x="148.45" y="423.1" width="13.49" height="1.89"/><rect class="cls-10" x="285.57" y="326.47" width="51.6" height="2.52"/><rect class="cls-25" x="285.57" y="331.88" width="123.84" height="1.89"/><rect class="cls-25" x="285.57" y="336.3" width="107.73" height="1.9"/><rect class="cls-10" x="285.57" y="343.76" width="24.63" height="6.73"/><rect class="cls-21" x="291.15" y="346.18" width="13.49" height="1.89"/><rect class="cls-22" x="279.94" y="398.03" width="65.86" height="38.35"/><rect class="cls-23" x="286.19" y="403.4" width="37.78" height="2.52"/><rect class="cls-21" x="286.19" y="408.8" width="43.1" height="1.89"/><rect class="cls-21" x="286.01" y="413.22" width="37.63" height="1.89"/><rect class="cls-23" x="285.57" y="420.68" width="24.64" height="6.73"/><rect class="cls-10" x="291.15" y="423.1" width="13.49" height="1.89"/><rect class="cls-24" x="279.94" y="359.09" width="65.86" height="38.4"/><rect class="cls-22" x="348.9" y="398.03" width="65.86" height="38.35"/><rect class="cls-23" x="355.14" y="403.4" width="37.78" height="2.52"/><rect class="cls-21" x="355.14" y="408.8" width="43.1" height="1.89"/><rect class="cls-21" x="354.96" y="413.22" width="37.63" height="1.89"/><rect class="cls-23" x="354.53" y="420.68" width="24.63" height="6.73"/><rect class="cls-10" x="360.1" y="423.1" width="13.49" height="1.89"/><rect class="cls-24" x="348.9" y="359.09" width="65.86" height="38.4"/><path class="cls-10" d="M303.61,370.15v17.78H326V370.15Zm20.8,16.21H305.18V371.72h19.23Z"/><path class="cls-10" d="M312.91,375.33a1.83,1.83,0,1,1-1.83-1.83A1.83,1.83,0,0,1,312.91,375.33Z"/><polygon class="cls-10" points="323.47 379.54 319.08 376.11 313.23 380.92 309.04 379.25 306.12 380.57 306.12 385.42 323.47 385.42 323.47 379.54"/><path class="cls-10" d="M372.36,370.15v17.78h22.38V370.15Zm20.81,16.21H373.93V371.72h19.24Z"/><path class="cls-10" d="M381.67,375.33a1.83,1.83,0,1,1-1.83-1.83A1.83,1.83,0,0,1,381.67,375.33Z"/><polygon class="cls-10" points="392.23 379.54 387.83 376.11 381.98 380.92 377.8 379.25 374.87 380.57 374.87 385.42 392.23 385.42 392.23 379.54"/><path class="cls-10" d="M216.57,360.76v-2a1.1,1.1,0,0,0-1.1-1.1H199.74a1.1,1.1,0,0,0-1.1,1.1v10a1.11,1.11,0,0,0,1.1,1.11h15.73a1.11,1.11,0,0,0,1.1-1.11v-2l5.94,2.95v-12Z"/><path class="cls-10" d="M202.94,357.27a3.77,3.77,0,1,0-3.77-3.77A3.76,3.76,0,0,0,202.94,357.27Z"/><path class="cls-10" d="M211,357.27a3.77,3.77,0,1,0-3.77-3.77A3.77,3.77,0,0,0,211,357.27Z"/></g></g></g><path class="cls-14" d="M508.43,585.7,508.29,596l1,8.68,3.21,2.64,2.52,1,.6,1.51,8.35,6.82a15.75,15.75,0,0,0,9.89,1.59c1.44-.19-.14-4.22-.57-4.85a71.55,71.55,0,0,0-6.44-7.66l-6.12-9.29L513.94,585Z"/><path class="cls-14" d="M427,595.36l1.83,4.32.75,4.75-.9,7.34-4,.2-2.95-.93-2.1,1.19s-11.49,1.13-15.74.85c-7-.45-10.82-1.55-12.07-3-.69-.83,2.72-2,3.82-2.06,6.33-.34,13.27-3.7,13.27-3.7l5.71-5.31,1.39-4Z"/><path class="cls-10" d="M420.77,224.46,425,172.87s14.21,36.22,9.49,52.07S420.77,224.46,420.77,224.46Z"/><polygon class="cls-26" points="463.43 270.15 439.77 238.84 438.3 228.38 440.91 228.7 438.13 218.49 418.07 218.25 416.42 234.51 419.21 235.11 419.56 244.66 423.29 247.1 436.77 293.7 463.43 270.15"/><path class="cls-26" d="M509,275.1l-50.79-11s-43.68,6.45-44.76,95.38c0,.42,66.77,21.88,67.09,5.07C481.34,322.5,509,275.1,509,275.1Z"/><path class="cls-10" d="M550.14,256.67l42.23-23.82s-23.2,32.56-33.61,38.08S550.14,256.67,550.14,256.67Z"/><polygon class="cls-26" points="494.54 276.76 541.38 255.09 540.32 253.16 551.98 250.4 566.27 270.34 553.38 278.61 551.69 275.18 548.41 270.11 551.09 276.26 538.82 287.36 528.51 288.46 489.92 315.37 494.54 276.76"/><polygon class="cls-14" points="480.89 363.53 523.83 596.51 507.34 595.79 482.88 520.54 477.38 498.05 448.26 409 445.57 361.42 480.89 363.53"/><polygon class="cls-14" points="429.99 596.41 434.69 502.46 443.03 460.02 453.84 401.72 450.28 361.62 414.03 359.18 415 426.27 410.59 486.57 409.6 509.35 410.38 599.55 429.99 596.41"/><path class="cls-10" d="M584.22,238.17s-2.59-8.41-1.17-10.48,7.12-9.32,7.12-9.32l1.63-1.71s2.91.73-1,5.55-.69,3.5-.69,3.5l5.2-3.05,6.68-3.24,2.77-1.82s1.5-1.14,2.09-1.11c1.7.08,1,1.34,1,1.34l-10.18,7.95L609.11,221s1.56-.38,2,.31,0,.88,0,.88l-11.61,8.44,6.17-1.83s1.54-.33,2,.32.72.89.72.89l-22.78,10.28Z"/><path class="cls-10" d="M599.28,227.48l8.22-2.93a7.21,7.21,0,0,1,2.84-.74A1.14,1.14,0,0,1,611.5,225l-12,5.61Z"/><path class="cls-10" d="M426.62,183.93s7.21-5,7.37-7.53.13-11.73.13-11.73l-.23-2.35s-2.74-1.22-2.65,5-1.61,3.18-1.61,3.18l-2.22-5.61-3.26-6.67-1.07-3.13s-.47-1.82-.95-2.16c-1.4-1-1.63.43-1.63.43l3.12,12.53-6-10.81s-1-1.26-1.8-1-.54.69-.54.69l4,13.8-3.74-5.23s-1-1.21-1.81-1a11.07,11.07,0,0,1-1.11.25l11.62,22.13Z"/><path class="cls-10" d="M421.34,166.24l-4.68-7.37a7.29,7.29,0,0,0-1.78-2.34,1.16,1.16,0,0,0-1.64.22l6,11.79Z"/><path class="cls-10" d="M474.07,252.18c-2.86,11.35-3.81,17.2-3.61,18,1.36,5.55,16.6,4.36,16.8,1.18s5.63-16.09,6.85-17.85S475.77,245.46,474.07,252.18Z"/><path class="cls-10" d="M481.59,221.57l-15.8,27.23s-3.75,6.46-1.82,8.82,8.8,5.73,12.82,5.18,10.09-.73,14.1-6.21,11.52-19.85,11.52-19.85.68-5.78-9.54-8S481.59,221.57,481.59,221.57Z"/><path class="cls-27" d="M486.36,215.49c-1.38-.36-3.92-.59-5.58,1.17s-1.57,6.05,0,7.55,13.21,8.35,14.94,8.67,4.77,1.31,7.3-.19c1.65-1-1-6.65-4-7.4C491.19,223.38,491.49,216.84,486.36,215.49Z"/><path class="cls-27" d="M499.94,231.09l-6.84,11.76-2.69,6.77,1.38.81,2.54,1.47S507.86,238.16,505,234,500.7,230.29,499.94,231.09Z"/><path class="cls-15" d="M491.28,251.67a2.13,2.13,0,0,0,.77,2.92l1.08.62a2.14,2.14,0,0,0,2.92-.77l2.5-4.31a2.14,2.14,0,0,0-.78-2.92l-1.07-.62a2.13,2.13,0,0,0-2.92.77Z"/><path class="cls-18" d="M472.12,272.91S441.87,304,433.69,346.69c-.64,3.36,1.86,6.73,1.86,6.73l6-3.16S456.27,303.76,472.12,272.91Z"/><polygon class="cls-18" points="472.52 272.69 471.25 279.94 487.76 272.8 487.37 270.83 472.52 272.69"/><polygon class="cls-18" points="470.37 268.01 465.66 275.35 472.41 272.52 470.37 268.01"/></g></g></svg>