<svg xmlns="http://www.w3.org/2000/svg" xmlns:xlink="http://www.w3.org/1999/xlink" viewBox="0 0 614.59 658.24"><defs><style>.cls-1,.cls-38,.cls-39,.cls-40,.cls-41{fill:none;}.cls-2{clip-path:url(#clip-path);}.cls-3{fill:url(#linear-gradient);}.cls-33,.cls-4{fill:#5b5b5b;}.cls-18,.cls-19,.cls-20,.cls-23,.cls-24,.cls-25,.cls-26,.cls-27,.cls-4{fill-rule:evenodd;}.cls-24,.cls-5{fill:#3b3e3f;}.cls-6{fill:#fed99d;}.cls-7{fill:url(#linear-gradient-2);}.cls-8{fill:#484f59;}.cls-9{fill:#262828;}.cls-10{fill:#30363d;}.cls-11,.cls-23{fill:#fff;}.cls-12{fill:url(#linear-gradient-3);}.cls-13{fill:url(#linear-gradient-4);}.cls-14{fill:#e2c59c;}.cls-15{fill:url(#linear-gradient-5);}.cls-16{fill:url(#linear-gradient-6);}.cls-17{fill:#e9d6b8;}.cls-18,.cls-30{fill:#ff9c8f;}.cls-19{fill:url(#linear-gradient-7);}.cls-20{fill:#fee6a0;}.cls-21{fill:url(#linear-gradient-8);}.cls-22{fill:#ffc598;}.cls-25{fill:url(#linear-gradient-9);}.cls-26{fill:url(#linear-gradient-10);}.cls-27{fill:url(#linear-gradient-11);}.cls-28{fill:#fee39f;}.cls-29{fill:#fff3d9;}.cls-31{fill:#ffb495;}.cls-32{fill:#fed49c;}.cls-34{fill:#fee4a0;}.cls-35{fill:#86bbd8;}.cls-36{fill:#ff9e8f;}.cls-37{fill:#ffc4ad;}.cls-38{stroke:#ffa491;}.cls-38,.cls-39,.cls-40,.cls-41{stroke-miterlimit:10;stroke-width:1.58px;}.cls-39{stroke:#ff9d8f;}.cls-40{stroke:#f1fafc;}.cls-41{stroke:#ffc4ad;}.cls-42{fill:#367082;}.cls-43{fill:url(#linear-gradient-12);}.cls-44{fill:url(#linear-gradient-13);}.cls-45{fill:url(#linear-gradient-14);}.cls-46{fill:url(#linear-gradient-15);}.cls-47{fill:#e6b09c;}.cls-48{fill:#ffc371;}.cls-49{fill:url(#linear-gradient-16);}.cls-50{fill:#fcb765;}.cls-51{fill:#2a2c2d;}.cls-52{fill:#163f59;}.cls-53{fill:#161711;}.cls-54{fill:url(#linear-gradient-17);}.cls-55{fill:url(#linear-gradient-18);}.cls-56{fill:url(#linear-gradient-19);}.cls-57{fill:#3d7aa8;}</style><clipPath id="clip-path"><rect class="cls-1" x="10.51" width="604.09" height="658.24"/></clipPath><linearGradient id="linear-gradient" x1="10.51" y1="329.12" x2="614.59" y2="329.12" gradientUnits="userSpaceOnUse"><stop offset="0" stop-color="#fee6a0"/><stop offset="0.17" stop-color="#fed49c"/><stop offset="0.51" stop-color="#ffb695"/><stop offset="0.8" stop-color="#ffa391"/><stop offset="1" stop-color="#ff9c8f"/></linearGradient><linearGradient id="linear-gradient-2" x1="455" y1="75.07" x2="524.26" y2="75.07" xlink:href="#linear-gradient"/><linearGradient id="linear-gradient-3" x1="417.67" y1="96.68" x2="440.19" y2="96.68" gradientUnits="userSpaceOnUse"><stop offset="0" stop-color="#fee870"/><stop offset="0.08" stop-color="#fee97c"/><stop offset="0.24" stop-color="#ffec91"/><stop offset="0.43" stop-color="#ffeea0"/><stop offset="0.65" stop-color="#ffefa8"/><stop offset="1" stop-color="#ffefab"/></linearGradient><linearGradient id="linear-gradient-4" x1="413.12" y1="96.04" x2="428.15" y2="96.04" xlink:href="#linear-gradient-3"/><linearGradient id="linear-gradient-5" x1="413.74" y1="122.7" x2="424.11" y2="122.7" xlink:href="#linear-gradient-3"/><linearGradient id="linear-gradient-6" x1="432.5" y1="131.48" x2="444.69" y2="131.48" xlink:href="#linear-gradient-3"/><linearGradient id="linear-gradient-7" x1="485.34" y1="78.9" x2="485.34" y2="214.37" gradientTransform="translate(-295.5)" xlink:href="#linear-gradient"/><linearGradient id="linear-gradient-8" x1="461.06" y1="94.48" x2="461.06" y2="147.5" gradientTransform="translate(-295.5)" gradientUnits="userSpaceOnUse"><stop offset="0" stop-color="#feda9d"/><stop offset="0.2" stop-color="#fed09b"/><stop offset="0.67" stop-color="#ffbd97"/><stop offset="1" stop-color="#ffb695"/></linearGradient><linearGradient id="linear-gradient-9" x1="586.57" y1="194.45" x2="626.61" y2="194.45" gradientTransform="translate(-295.5)" xlink:href="#linear-gradient-3"/><linearGradient id="linear-gradient-10" x1="571.43" y1="198.62" x2="603.74" y2="198.62" gradientTransform="translate(-295.5)" xlink:href="#linear-gradient-3"/><linearGradient id="linear-gradient-11" x1="555.29" y1="109.17" x2="565.12" y2="109.17" gradientTransform="translate(-295.5)" xlink:href="#linear-gradient-3"/><linearGradient id="linear-gradient-12" x1="477.89" y1="418.86" x2="538.58" y2="418.86" xlink:href="#linear-gradient-3"/><linearGradient id="linear-gradient-13" x1="507.23" y1="376.85" x2="536.42" y2="376.85" xlink:href="#linear-gradient-3"/><linearGradient id="linear-gradient-14" x1="533.46" y1="376.86" x2="538.95" y2="376.86" xlink:href="#linear-gradient-3"/><linearGradient id="linear-gradient-15" x1="530.01" y1="376.86" x2="538.05" y2="376.86" xlink:href="#linear-gradient-3"/><linearGradient id="linear-gradient-16" x1="243.13" y1="485.09" x2="342.92" y2="485.09" xlink:href="#linear-gradient-3"/><linearGradient id="linear-gradient-17" x1="210.75" y1="533.81" x2="239.28" y2="533.81" xlink:href="#linear-gradient-3"/><linearGradient id="linear-gradient-18" x1="317.2" y1="537.63" x2="346.65" y2="537.63" xlink:href="#linear-gradient-3"/><linearGradient id="linear-gradient-19" x1="214.65" y1="487.33" x2="283.1" y2="487.33" xlink:href="#linear-gradient-3"/></defs><title>page 3</title><g id="Layer_2" data-name="Layer 2"><g id="_3" data-name="3"><g id="illustration"><g class="cls-2"><rect class="cls-3" x="10.51" width="604.09" height="658.24"/></g></g><path class="cls-4" d="M278.27,277.43C219.59,223.91,362.85,132,467.17,134.57c48.87,2,6.29,3.18,6.29,3.18s-31.06,4.29-63.17,23-108.77,71.64-49.17,99.82,347.3,111.44,150.22,304c-39.2,38.31-72,69-99.32,93.5l-320.15.13c69.21-38.19,151.83-87.63,204.21-131C403.11,438.55,412.32,399.7,278.27,277.43Z"/><path class="cls-5" d="M472.34,150.14l32-.38a2,2,0,0,0-.05-4.09l-32,.39a2,2,0,0,0,.06,4.08Z"/><path class="cls-6" d="M447.51,68.67a39.82,39.82,0,0,1,79.64-1c0,1.3-.71,19.72-15.48,39.22-4.32,5.89-3.46,17.59-3.42,17.59l-17.42.22-5.65.06-17.5.22s.7-11.73-3.75-17.51C448.68,88.35,447.52,70,447.51,68.67Z"/><path class="cls-7" d="M475.18,119.72c-.33-5-1.68-14.44-4.83-18.53C455.85,83,455,65.61,455,65.44a34.63,34.63,0,0,1,69.26-.82c0,.15-.44,17.55-14.43,36-3.11,4.22-4.25,13.69-4.5,18.71Z"/><polygon class="cls-8" points="477.86 127.97 472.19 86.98 474.26 86.33 479.93 127.31 477.86 127.97"/><polygon class="cls-8" points="498.13 127.72 502.81 86.61 500.72 86.01 496.05 127.12 498.13 127.72"/><path class="cls-8" d="M501.17,91.77c-1.43,0-2.07-1.37-2.53-2.38-.2-.43-.6-1.3-.83-1.3s-.6.89-.78,1.32c-.44,1-1,2.42-2.47,2.44s-2.07-1.37-2.53-2.38c-.11-.23-.27-.6-.44-.89-.71,1.36-2,3.33-3.64,3.35-1.43,0-2.07-1.37-2.53-2.38-.19-.42-.6-1.3-.82-1.3s-.6.89-.79,1.32c-.44,1-1,2.42-2.47,2.44s-2.07-1.37-2.53-2.38c-.2-.43-.6-1.3-.83-1.3s-.6.89-.79,1.32c-.44,1-1,2.42-2.47,2.44l0-1.86c.21,0,.6-.89.79-1.32.44-1,1-2.42,2.47-2.44s2.07,1.37,2.53,2.38c.2.43.6,1.3.83,1.3s.6-.89.79-1.32c.44-1,1-2.42,2.47-2.44s2.06,1.37,2.53,2.38c.19.43.59,1.3.82,1.3.54,0,1.7-1.53,2.42-3.2a.94.94,0,0,1,.84-.56c1.43,0,2.06,1.37,2.52,2.38.2.43.61,1.3.82,1.3s.61-.89.79-1.31c.44-1,1-2.43,2.47-2.45s2.07,1.37,2.54,2.38c.19.43.59,1.3.81,1.3Z"/><path class="cls-5" d="M508.29,124.56l.26,20.82A2.58,2.58,0,0,1,506,148l-35.35.43a2.59,2.59,0,0,1-2.61-2.56l-.26-20.82Z"/><path class="cls-5" d="M509.16,128.6l-42.19.51a2,2,0,0,1-.05-4.08l42.19-.51a2,2,0,0,1,.05,4.08Z"/><path class="cls-9" d="M490.49,127.79l-23.4.28a1.13,1.13,0,1,1,0-2.26l23.4-.28a1.13,1.13,0,1,1,0,2.26Z"/><path class="cls-5" d="M509.24,135.4l-42.18.52a2,2,0,1,1-.05-4.08l42.18-.52a2,2,0,1,1,.05,4.08Z"/><path class="cls-5" d="M509.32,142.21l-42.18.51a2,2,0,0,1-.05-4.08l42.18-.51a2,2,0,1,1,.05,4.08Z"/><path class="cls-9" d="M490.57,134.29l-23.4.28a1.14,1.14,0,1,1,0-2.27l23.4-.28a1.12,1.12,0,0,1,1.14,1.11A1.14,1.14,0,0,1,490.57,134.29Z"/><path class="cls-9" d="M490.66,141.16l-23.4.28a1.13,1.13,0,1,1,0-2.26l23.4-.28a1.13,1.13,0,1,1,0,2.26Z"/><rect class="cls-10" x="473.36" y="128.92" width="19.99" height="2.07" transform="translate(-1.55 5.92) rotate(-0.7)"/><rect class="cls-10" x="473.44" y="135.55" width="19.99" height="2.08" transform="translate(-1.62 5.88) rotate(-0.7)"/><rect class="cls-10" x="473.52" y="142.17" width="19.99" height="2.07" transform="translate(-1.72 5.93) rotate(-0.7)"/><path class="cls-11" d="M457.4,40.87l13.16-2.71,1.32-2.88s-.16-.08-.77.4c-.17.14-.48,1.07-.71,1.15s-1,.87-1.42.75c-3-.87-7.39-2.75-11-2.58C452.29,35.28,457.2,41,457.4,40.87Z"/><path class="cls-5" d="M423.15,45.7s3.13-4.41,17.07-8.08c14.25-3.74,14.18-2.77,14.18-2.77l3.34,0,1.44,5.9L436.6,47.79Z"/><path class="cls-11" d="M470.56,33.39c.85-.61,2.25-1.89,2.32-1.21l-2.41,2.38-.64,1.54.46,1.26-1.11.2c-.26.34-.49.57-1,.11l-.46.11a7.8,7.8,0,0,1,.59-2.1l1-1.26A7.17,7.17,0,0,1,470.56,33.39Z"/><path class="cls-12" d="M420.66,83.75s6.78,24,12.21,32.6,7.32-2.58,7.32-2.58l-6.74-39.92-15.78-.1S418.07,74.57,420.66,83.75Z"/><path class="cls-13" d="M428.15,73.84s-4.54,39.39-5.19,41.36c-2.2,6.7-7.22,2.38-8,.15s-2.07-18.75-1.81-30.8.26-11.25.26-11.25Z"/><path class="cls-5" d="M414.31,151.17c-.23.28-.06,1-.06,1a27.4,27.4,0,0,0,5.4.14,6.88,6.88,0,0,0,1.46-.68c.09-.06.25-.37.34-.42s.25.06.39,0a4.31,4.31,0,0,0,.63-.43,3.93,3.93,0,0,0-.12-2.62s-3.48-1.16-4.13-.36C416.69,149.7,414.82,150.55,414.31,151.17Z"/><path class="cls-5" d="M439.71,149.48l.58,3.05h3.1s.18-.43.44-.43.5.43.81.43h7.89s.14-.64,0-.86a3,3,0,0,0-.95-.41c-1.61-.45-6.2-1.86-7-3.39C443.59,146,439.71,149.48,439.71,149.48Z"/><path class="cls-14" d="M420.32,31c.24,1-.1,1.9-.76,2.06h0c-.67.17-1.4-.49-1.64-1.46l-.31-1.23c-.24-1,.1-1.9.76-2.07h0c.67-.16,1.4.49,1.64,1.47Z"/><path class="cls-11" d="M426.43,40.09c-.15,1.76-1.09,3.28-2.09,3.36h-2.82c-1-.08-1.94-1.6-2.09-3.36q-.35-4.34-.7-8.69c-.15-1.74.53-5.23,2-6.26a3.78,3.78,0,0,1,4.33,0c1.51,1,2.19,4.52,2,6.26Z"/><path class="cls-11" d="M405.3,68.15l10.09,10.32s-12.16-2.79-12.7-7.82S405.3,68.15,405.3,68.15Z"/><path class="cls-5" d="M436.61,38.71l-9.17,2.09L423,42.11l-5.46-.62-6,2.61s-2.71,2.61-.19,11,1.55,21.51,1.55,21.51l21.4,1s.78-12.22,1.82-24.28C437,43.82,435.66,40.78,436.61,38.71Z"/><path class="cls-5" d="M415.43,44.5s-3.33-2.61-6.59,2.24a89.86,89.86,0,0,0-8.92,17.32c-.59,1.68-1.36,6.71,1,8.2l2.32,1.49,4.85-3-.77-1.49-.39-.93s2.71-6,5.62-11.37S415.43,44.5,415.43,44.5Z"/><path class="cls-11" d="M427.9,35.62c-.45,1.64-1.13,2-2.32,2.21s-1.42.23-2.56.34-2.44-1.54-2.72-3c-.45-2.41-1.76-4.39-2.21-6.8-.29-1.44.33-2.74,2.09-3.78s3.52-2.85,5.23-2.25c1.88.69,2.91,3.54,2.82,5C428.12,29.83,428,33.15,427.9,35.62Z"/><polygon class="cls-5" points="422.96 42.18 421.16 45.12 417.63 41.2 419.19 39.52 422.96 42.18"/><polygon class="cls-5" points="426.68 39.47 424.54 41.64 425.97 44.19 427.73 40.83 426.68 39.47"/><path class="cls-15" d="M424.11,98.4s-1,14.94-.87,22.84a269.13,269.13,0,0,1-.78,27.1c-.06.59-4.91.14-4.91.14s-3.27-37.23-3.78-43.33S420.23,94,424.11,98.4Z"/><path class="cls-16" d="M438.51,114.94a53.93,53.93,0,0,1-5.69.67c-2,.17,5.76,34.46,5.76,34.46l6.11-2.64-4.6-34.54Z"/><path class="cls-5" d="M417.21,26.49l.88,1.88s1.86-2.1,3.18-3.82c.41-.54,4.67-.59,5.72-.4.77.14.86,1.12,1,1.69.63,2.05-.27-3.44-.27-3.44a5.77,5.77,0,0,0-4.15-2.8c-1.49-.12-2.19.74-2.75,1.87-.14.27,1.64-.43,1.33-.47a20.19,20.19,0,0,0-1.88,1.65,8.88,8.88,0,0,1-.93,1.68C417.94,26.27,417.21,26.49,417.21,26.49Z"/><path class="cls-11" d="M412.4,74.53c.67.2.63.16.63.16a2.52,2.52,0,0,0,.5,1.55c.26.33,1.24,1.25,1.24,1.25l1.44,1.38.72.58s.43.3.48.46c.12.46-.28.38-.28.38l-3-2,2.25,2.63s.24.38.09.57-.23.07-.23.07L413,79.16l1,1.49s.22.38.09.57a2.28,2.28,0,0,0-.18.26l-2.47-2.73S411.72,74.33,412.4,74.53Z"/><path class="cls-17" d="M413.83,78.83l1.48,1.94a2,2,0,0,1,.44.69.32.32,0,0,1-.21.41L413,79.16Z"/><g id="Teamwork---Web"><g id="Teamwork"><g id="Note"><path id="Path_1135" data-name="Path 1135" class="cls-18" d="M268.48,94s-4.93-14.76-12.39-14.76H149.9s10.92,3.23,8.85,14.76Z"/><path id="Path_1136" data-name="Path 1136" class="cls-19" d="M136.08,79.32c13.51,0,96.84-.65,109.68-.32h.49c4,.11,6.76,0,6.43.64-2.65,5.31-7.3,21.59-7.58,37.55-.54,30.69.69,76.1,1.15,91.69a5.33,5.33,0,0,1-5.32,5.48H133.07a5.33,5.33,0,0,1-5.32-5.23c-.38-20.33-1.6-93.69.1-106.43C129.82,87.89,131.8,79.32,136.08,79.32Z"/><path id="Path_1137" data-name="Path 1137" class="cls-20" d="M114,195.26s-1,19.11,13.32,19.11H241.48s-11.73-7.58-9.51-19.11Z"/><g id="Group_623" data-name="Group 623"><g id="Group_615" data-name="Group 615"><rect id="Rectangle_265" data-name="Rectangle 265" class="cls-11" x="143.99" y="94.97" width="83" height="0.99"/></g><g id="Group_616" data-name="Group 616"><rect id="Rectangle_266" data-name="Rectangle 266" class="cls-11" x="143.99" y="107.65" width="83" height="0.99"/></g><g id="Group_617" data-name="Group 617"><rect id="Rectangle_267" data-name="Rectangle 267" class="cls-11" x="143.99" y="120.33" width="83" height="0.99"/></g><g id="Group_618" data-name="Group 618"><rect id="Rectangle_268" data-name="Rectangle 268" class="cls-11" x="143.99" y="133.01" width="83" height="0.99"/></g><g id="Group_619" data-name="Group 619"><rect id="Rectangle_269" data-name="Rectangle 269" class="cls-11" x="143.99" y="145.69" width="83" height="0.99"/></g><g id="Group_620" data-name="Group 620"><rect id="Rectangle_270" data-name="Rectangle 270" class="cls-11" x="143.99" y="158.37" width="83" height="0.99"/></g><g id="Group_621" data-name="Group 621"><rect id="Rectangle_271" data-name="Rectangle 271" class="cls-11" x="143.99" y="171.05" width="83" height="0.99"/></g><g id="Group_622" data-name="Group 622"><rect id="Rectangle_272" data-name="Rectangle 272" class="cls-11" x="143.99" y="183.73" width="83" height="0.99"/></g></g><rect id="Rectangle_278" data-name="Rectangle 278" class="cls-21" x="142.67" y="94.48" width="45.78" height="53.03"/><rect id="Rectangle_279" data-name="Rectangle 279" class="cls-11" x="146.65" y="99.09" width="37.82" height="43.81"/><g id="Group_636" data-name="Group 636"><rect id="Rectangle_280" data-name="Rectangle 280" class="cls-22" x="163.92" y="94.48" width="0.99" height="51.39" transform="translate(-38.57 136.72) rotate(-40.82)"/></g><g id="Group_637" data-name="Group 637"><rect id="Rectangle_281" data-name="Rectangle 281" class="cls-22" x="138.71" y="119.66" width="51.39" height="0.99" transform="translate(-34 166.01) rotate(-49.18)"/></g></g><g id="Person"><g id="Group_625" data-name="Group 625"><path id="Path_1142" data-name="Path 1142" class="cls-23" d="M280.89,82.22s-5.53-5.53-.53-5.79,13.68-1.31,12.89,3.68-1.06,7-2.9,7.19S280.89,82.22,280.89,82.22Z"/><g id="Group_624" data-name="Group 624"><path id="Path_1143" data-name="Path 1143" class="cls-24" d="M281.22,79.14s-4.49,11.44,2.61,11.21A7.37,7.37,0,0,0,290,87s1.5.57,1.88-2.53c.22-1.84-2-3-2.31-.08,0,0-1.7.4-1.87-2.08s-1.46-2.46-2.88-2.11S281.39,79.9,281.22,79.14Z"/><path id="Path_1144" data-name="Path 1144" class="cls-24" d="M290.53,86.67s.54,5,1.93,7.38a10.42,10.42,0,0,0,3,2.21c1.7.61-6.86,14.06-9.33,9.6s-1.87-6.55-1.87-6.55,2.11-2.85,2-3.29-1.77-6.29-1.77-6.29S284.85,84.15,290.53,86.67Z"/></g></g><path id="Path_1145" data-name="Path 1145" class="cls-25" d="M331.11,237.63l-10.05,4.09h0c-.6-1.18-21.07-41.88-22.69-45.56-8-18.34-7.27-49-7.27-49h20.56c5.31,13.61-.79,42.34-.79,42.34C320.86,194.24,331.11,237.63,331.11,237.63Z"/><path id="Path_1146" data-name="Path 1146" class="cls-26" d="M297.45,244.21c0,.17-3.89-.1-3.87.07a42,42,0,0,0,1.26,6.05H275.92l10.28-5.93v-.12c0-3.76-1.59-44.15-3.09-50.69s2.27-46.53,2.27-46.53l22.59-.15c2.3,13.14-11.31,44.18-11.31,44.18C303.76,203.71,297,240.3,297.45,244.21Z"/><path id="Path_1147" data-name="Path 1147" class="cls-23" d="M275.92,250.33l10.28-5.93v-.12h7.38a42,42,0,0,0,1.26,6.05Z"/><path id="Path_1148" data-name="Path 1148" class="cls-23" d="M282.59,102l9.91-8s10-1.75,12.88,16.74,6.31,36.38,6.31,36.38H285.4s2.36-14.2,0-19.2S277.42,103.69,282.59,102Z"/><path id="Path_1149" data-name="Path 1149" class="cls-24" d="M268.49,105.67l-16-10.83h0a40.19,40.19,0,0,1-4.24-3.68c-.79-1-2.9-5-3.68-4s-3.16,5.26-1.85,6.58a7.18,7.18,0,0,0,3.69,1.58l2.09,2.2,13.91,16c1.85,1.67,5.12-3.54,6.5-6A1.44,1.44,0,0,0,268.49,105.67Z"/><path id="Path_1150" data-name="Path 1150" class="cls-23" d="M297,100.36c.26,2.89-1.23,9.38-6.32,11.31-7.34,2.78-11.91,5.13-17.31,6.62-3.1.86-8.52-2.59-10.9-4.74l7.14-7.14S285.1,98.67,288,97.74,296.56,95.89,297,100.36Z"/><path id="Path_1151" data-name="Path 1151" class="cls-23" d="M314.25,250.62l6.81-8.89h0l6.83-2.79.06.11,4.08,6.85Z"/><path id="Path_1152" data-name="Path 1152" class="cls-27" d="M266.72,104.31s1.32,0,1.58,1c0,0,1.05-.27,1.32,1L262.78,114s-2.1-.27-1.58-1.32c0,0-1.84-.53-1.31-1.58Z"/></g></g></g><path class="cls-11" d="M495,327.67H350.72a7.09,7.09,0,0,1-7.1-7.09V249.33H502.07v71.25A7.08,7.08,0,0,1,495,327.67Z"/><rect class="cls-28" x="347.11" y="260.59" width="76.69" height="43.01"/><rect class="cls-29" x="347.11" y="303.89" width="76.69" height="21.01"/><rect class="cls-30" x="425.36" y="260.59" width="73.72" height="20.21"/><path class="cls-28" d="M500.47,238.62H345.21a1.54,1.54,0,0,0-1.59,1.48v9.28H502.05V240.1A1.53,1.53,0,0,0,500.47,238.62Z"/><path class="cls-31" d="M347,241.52a1,1,0,1,1-1-1A1,1,0,0,1,347,241.52Z"/><path class="cls-31" d="M349.83,241.52a1,1,0,1,1-1-1A1,1,0,0,1,349.83,241.52Z"/><path class="cls-31" d="M352.62,241.52a1,1,0,1,1-1-1A1,1,0,0,1,352.62,241.52Z"/><rect class="cls-11" x="356.68" y="243.82" width="123.83" height="4.17"/><polygon class="cls-31" points="346.38 247.23 344.87 245.72 346.38 244.22 346.94 244.78 345.99 245.72 346.94 246.67 346.38 247.23"/><rect class="cls-31" x="345.76" y="245.33" width="2.79" height="0.79"/><polygon class="cls-31" points="352.77 247.23 352.21 246.67 353.16 245.72 352.21 244.78 352.77 244.22 354.28 245.72 352.77 247.23"/><rect class="cls-31" x="350.59" y="245.33" width="2.79" height="0.79"/><rect class="cls-31" x="482.12" y="243.82" width="12.16" height="3.72"/><rect class="cls-28" x="363.04" y="254.23" width="12.3" height="1.33"/><rect class="cls-28" x="377.16" y="254.23" width="12.3" height="1.33"/><rect class="cls-28" x="391.27" y="254.23" width="12.3" height="1.33"/><rect class="cls-28" x="405.39" y="254.23" width="12.3" height="1.33"/><rect class="cls-28" x="419.5" y="254.23" width="12.3" height="1.33"/><rect class="cls-28" x="478.59" y="252.01" width="19.87" height="1"/><rect class="cls-28" x="482.8" y="254.4" width="15.66" height="1"/><rect class="cls-30" x="347.11" y="253.12" width="13" height="3.56"/><rect class="cls-30" x="350.72" y="306.83" width="27.75" height="1.38"/><rect class="cls-28" x="350.72" y="309.79" width="67.33" height="1.04"/><rect class="cls-28" x="350.43" y="312.21" width="58.79" height="1.04"/><rect class="cls-30" x="350.2" y="316.3" width="13.5" height="3.69"/><rect class="cls-11" x="353.25" y="317.62" width="7.39" height="1.04"/><rect class="cls-11" x="428.38" y="264.68" width="28.27" height="1.38"/><rect class="cls-32" x="428.38" y="267.64" width="67.85" height="1.04"/><rect class="cls-32" x="428.38" y="270.06" width="59.02" height="1.04"/><rect class="cls-11" x="428.38" y="274.15" width="13.5" height="3.69"/><rect class="cls-28" x="431.43" y="275.48" width="7.39" height="1.04"/><rect class="cls-29" x="425.29" y="303.89" width="36.09" height="21.01"/><rect class="cls-30" x="428.71" y="306.83" width="20.7" height="1.38"/><rect class="cls-28" x="428.71" y="309.79" width="23.61" height="1.04"/><rect class="cls-28" x="428.62" y="312.21" width="20.62" height="1.04"/><rect class="cls-30" x="428.38" y="316.3" width="13.5" height="3.69"/><rect class="cls-11" x="431.43" y="317.62" width="7.39" height="1.04"/><rect class="cls-31" x="425.29" y="282.55" width="36.09" height="21.04"/><rect class="cls-29" x="463.07" y="303.89" width="36.08" height="21.01"/><rect class="cls-30" x="466.49" y="306.83" width="20.7" height="1.38"/><rect class="cls-28" x="466.49" y="309.79" width="23.61" height="1.04"/><rect class="cls-28" x="466.39" y="312.21" width="20.62" height="1.04"/><rect class="cls-30" x="466.16" y="316.3" width="13.5" height="3.69"/><rect class="cls-11" x="469.21" y="317.62" width="7.39" height="1.04"/><rect class="cls-31" x="463.07" y="282.55" width="36.08" height="21.04"/><path class="cls-11" d="M438.26,288.61v9.74h12.26v-9.74Zm11.4,8.88H439.12v-8h10.54Z"/><path class="cls-11" d="M443.36,291.45a1,1,0,1,1-1-1A1,1,0,0,1,443.36,291.45Z"/><polygon class="cls-11" points="449.14 293.75 446.74 291.88 443.53 294.51 441.24 293.6 439.63 294.32 439.63 296.98 449.14 296.98 449.14 293.75"/><path class="cls-11" d="M475.93,288.61v9.74h12.26v-9.74Zm11.4,8.88H476.79v-8h10.54Z"/><path class="cls-11" d="M481,291.45a1,1,0,1,1-1-1A1,1,0,0,1,481,291.45Z"/><polygon class="cls-11" points="486.81 293.75 484.4 291.88 481.2 294.51 478.91 293.6 477.3 294.32 477.3 296.98 486.81 296.98 486.81 293.75"/><path class="cls-11" d="M390.57,283.47v-1.08a.6.6,0,0,0-.6-.6h-8.62a.6.6,0,0,0-.6.6v5.51a.6.6,0,0,0,.6.6H390a.6.6,0,0,0,.6-.6v-1.08l3.26,1.62v-6.59Z"/><path class="cls-11" d="M383.11,281.56a2.07,2.07,0,1,0-2.07-2.07A2.07,2.07,0,0,0,383.11,281.56Z"/><path class="cls-11" d="M387.54,281.56a2.07,2.07,0,1,0-2.06-2.07A2.07,2.07,0,0,0,387.54,281.56Z"/><rect class="cls-33" y="297.9" width="236.14" height="132.97"/><rect class="cls-34" x="0.09" y="297.87" width="236.14" height="3.45"/><rect class="cls-35" x="4.27" y="299.45" width="5.68" height="0.33"/><rect class="cls-35" x="11.57" y="299.45" width="5.68" height="0.33"/><rect class="cls-35" x="18.87" y="299.45" width="5.68" height="0.33"/><rect class="cls-35" x="26.17" y="299.45" width="5.68" height="0.33"/><rect class="cls-35" x="33.47" y="299.45" width="5.68" height="0.33"/><rect class="cls-35" x="40.77" y="299.45" width="5.68" height="0.33"/><rect class="cls-35" x="48.06" y="299.45" width="5.69" height="0.33"/><rect class="cls-35" x="55.36" y="299.45" width="5.68" height="0.33"/><rect class="cls-35" x="1.75" y="299.03" width="1.07" height="1.17"/><rect class="cls-36" x="0.09" y="300.93" width="236.14" height="4.12"/><rect class="cls-5" x="220.39" y="301.83" width="14.98" height="2.6"/><rect class="cls-5" x="217.87" y="302.87" width="0.58" height="0.53"/><rect class="cls-5" x="208.76" y="302.86" width="7.89" height="0.54"/><rect class="cls-37" x="5.34" y="302.45" width="1.07" height="1.17"/><rect class="cls-37" x="1.75" y="302.45" width="1.07" height="1.17"/><rect class="cls-37" x="7.69" y="302.45" width="1.07" height="1.17"/><line class="cls-38" x1="30.13" y1="308.54" x2="79.49" y2="308.54"/><line class="cls-39" x1="34.21" y1="313.45" x2="42.38" y2="313.45"/><line class="cls-39" x1="34.21" y1="319.27" x2="42.38" y2="319.27"/><line class="cls-39" x1="34.21" y1="325.08" x2="42.38" y2="325.08"/><line class="cls-38" x1="58.34" y1="314.36" x2="83.39" y2="314.36"/><line class="cls-38" x1="58.34" y1="320.17" x2="83.39" y2="320.17"/><line class="cls-38" x1="58.34" y1="325.99" x2="83.39" y2="325.99"/><line class="cls-40" x1="45.91" y1="314.36" x2="51.66" y2="314.36"/><line class="cls-40" x1="45.91" y1="320.17" x2="51.66" y2="320.17"/><line class="cls-40" x1="45.91" y1="325.99" x2="51.66" y2="325.99"/><line class="cls-41" x1="54.14" y1="314.36" x2="55.67" y2="314.36"/><line class="cls-41" x1="54.14" y1="320.17" x2="55.67" y2="320.17"/><line class="cls-41" x1="54.14" y1="325.99" x2="55.67" y2="325.99"/><line class="cls-41" x1="30.32" y1="314.36" x2="31.85" y2="314.36"/><line class="cls-41" x1="30.32" y1="320.17" x2="31.85" y2="320.17"/><line class="cls-41" x1="30.32" y1="325.99" x2="31.85" y2="325.99"/><line class="cls-39" x1="34.21" y1="336.72" x2="46.83" y2="336.72"/><line class="cls-38" x1="64.28" y1="337.62" x2="83.39" y2="337.62"/><line class="cls-40" x1="50.36" y1="337.62" x2="57.6" y2="337.62"/><line class="cls-41" x1="60.08" y1="337.62" x2="61.61" y2="337.62"/><line class="cls-38" x1="84.13" y1="349.25" x2="143.33" y2="349.25"/><line class="cls-40" x1="51.1" y1="349.25" x2="79.49" y2="349.25"/><line class="cls-38" x1="105.66" y1="337.62" x2="124.77" y2="337.62"/><line class="cls-40" x1="88.77" y1="337.62" x2="98.98" y2="337.62"/><line class="cls-41" x1="101.46" y1="337.62" x2="102.99" y2="337.62"/><line class="cls-41" x1="126.7" y1="337.62" x2="128.23" y2="337.62"/><line class="cls-41" x1="30.32" y1="337.62" x2="31.85" y2="337.62"/><line class="cls-39" x1="34.21" y1="359.97" x2="46.83" y2="359.97"/><line class="cls-40" x1="30.32" y1="360.88" x2="31.85" y2="360.88"/><line class="cls-40" x1="49.25" y1="360.88" x2="50.78" y2="360.88"/><line class="cls-39" x1="24.56" y1="383.24" x2="37.18" y2="383.24"/><line class="cls-40" x1="20.67" y1="384.14" x2="22.2" y2="384.14"/><line class="cls-40" x1="39.6" y1="384.14" x2="41.13" y2="384.14"/><line class="cls-41" x1="40.9" y1="355.06" x2="42.43" y2="355.06"/><line class="cls-39" x1="40.9" y1="342.53" x2="48.32" y2="342.53"/><line class="cls-41" x1="51.1" y1="343.43" x2="80.04" y2="343.43"/><line class="cls-38" x1="101.02" y1="314.36" x2="126.07" y2="314.36"/><line class="cls-38" x1="101.02" y1="320.17" x2="126.07" y2="320.17"/><line class="cls-38" x1="101.02" y1="325.99" x2="126.07" y2="325.99"/><line class="cls-38" x1="127.37" y1="314.36" x2="171.17" y2="314.36"/><line class="cls-38" x1="127.37" y1="320.17" x2="187.31" y2="320.17"/><line class="cls-38" x1="127.37" y1="325.99" x2="198.07" y2="325.99"/><line class="cls-40" x1="88.59" y1="314.36" x2="94.34" y2="314.36"/><line class="cls-40" x1="88.59" y1="320.17" x2="94.34" y2="320.17"/><line class="cls-40" x1="88.59" y1="325.99" x2="94.34" y2="325.99"/><line class="cls-41" x1="96.82" y1="314.36" x2="98.35" y2="314.36"/><line class="cls-41" x1="96.82" y1="320.17" x2="98.35" y2="320.17"/><line class="cls-41" x1="96.82" y1="325.99" x2="98.35" y2="325.99"/><line class="cls-41" x1="176.92" y1="314.36" x2="178.45" y2="314.36"/><line class="cls-41" x1="191.65" y1="320.17" x2="193.18" y2="320.17"/><line class="cls-41" x1="201.67" y1="325.99" x2="203.2" y2="325.99"/><line class="cls-38" x1="30.13" y1="331.8" x2="79.49" y2="331.8"/><line class="cls-39" x1="24.19" y1="396.5" x2="32.36" y2="396.5"/><line class="cls-39" x1="43.31" y1="408.13" x2="51.47" y2="408.13"/><line class="cls-38" x1="67.43" y1="408.13" x2="121.62" y2="408.13"/><line class="cls-40" x1="30.69" y1="402.32" x2="110.11" y2="402.32"/><line class="cls-40" x1="55" y1="408.13" x2="60.75" y2="408.13"/><line class="cls-41" x1="63.23" y1="408.13" x2="64.76" y2="408.13"/><line class="cls-41" x1="20.3" y1="396.5" x2="21.83" y2="396.5"/><line class="cls-41" x1="34.21" y1="396.5" x2="35.75" y2="396.5"/><line class="cls-39" x1="54.26" y1="413.95" x2="57.97" y2="413.95"/><line class="cls-41" x1="50.36" y1="413.95" x2="51.89" y2="413.95"/><line class="cls-41" x1="59.82" y1="413.95" x2="61.35" y2="413.95"/><line class="cls-39" x1="64.65" y1="425.58" x2="68.36" y2="425.58"/><line class="cls-41" x1="60.75" y1="425.58" x2="62.28" y2="425.58"/><line class="cls-41" x1="70.21" y1="425.58" x2="71.75" y2="425.58"/><line class="cls-41" x1="39.41" y1="408.13" x2="40.94" y2="408.13"/><line class="cls-40" x1="60.94" y1="419.76" x2="183.78" y2="419.76"/><line class="cls-41" x1="123.47" y1="408.13" x2="125" y2="408.13"/><line class="cls-38" x1="30.13" y1="366.69" x2="98.05" y2="366.69"/><line class="cls-38" x1="30.13" y1="372.51" x2="130.71" y2="372.51"/><line class="cls-38" x1="30.13" y1="378.32" x2="64.28" y2="378.32"/><line class="cls-41" x1="3.04" y1="308.54" x2="6.75" y2="308.54"/><line class="cls-41" x1="3.04" y1="314.36" x2="6.75" y2="314.36"/><line class="cls-41" x1="3.04" y1="320.17" x2="6.75" y2="320.17"/><line class="cls-41" x1="3.04" y1="325.99" x2="6.75" y2="325.99"/><line class="cls-41" x1="3.04" y1="331.8" x2="6.75" y2="331.8"/><line class="cls-41" x1="3.04" y1="337.62" x2="6.75" y2="337.62"/><line class="cls-41" x1="3.04" y1="343.43" x2="6.75" y2="343.43"/><line class="cls-41" x1="3.04" y1="349.25" x2="6.75" y2="349.25"/><line class="cls-41" x1="3.04" y1="355.06" x2="6.75" y2="355.06"/><line class="cls-41" x1="3.04" y1="360.88" x2="6.75" y2="360.88"/><line class="cls-41" x1="3.04" y1="366.69" x2="6.75" y2="366.69"/><line class="cls-41" x1="3.04" y1="372.51" x2="6.75" y2="372.51"/><line class="cls-41" x1="3.04" y1="378.32" x2="6.75" y2="378.32"/><line class="cls-41" x1="3.04" y1="384.14" x2="6.75" y2="384.14"/><line class="cls-41" x1="3.04" y1="389.95" x2="6.75" y2="389.95"/><line class="cls-41" x1="3.04" y1="395.77" x2="6.75" y2="395.77"/><line class="cls-41" x1="3.04" y1="401.58" x2="6.75" y2="401.58"/><path class="cls-42" d="M535.44,426.9a8.49,8.49,0,0,0,5.62-2c2.82-2.46,4.05-6.83,3.64-13-.28-4.16-1.92-8.37-3.65-12.83-2.92-7.5-6.22-16-4.49-27.24l-3.22-.49c-1.86,12.1,1.77,21.42,4.68,28.91,1.71,4.4,3.19,8.21,3.43,11.87.34,5-.53,8.55-2.49,10.29a5.4,5.4,0,0,1-4.3,1.21l-.65,3.18A6.86,6.86,0,0,0,535.44,426.9Z"/><path class="cls-5" d="M510.52,452.68l-3.16,4.83L533.94,466s1.77-1.7-4.75-5.11C521.6,456.94,510.52,452.68,510.52,452.68Z"/><path class="cls-5" d="M505.8,452.68l3.17,4.83L482.39,466s-1.77-1.7,4.75-5.11C494.73,456.94,505.8,452.68,505.8,452.68Z"/><rect class="cls-5" x="505.39" y="438.33" width="5.55" height="19.77"/><path class="cls-5" d="M510.88,453.7l-2.71,4.6,22.75,8.13s1.52-1.62-4.06-4.88A177.62,177.62,0,0,0,510.88,453.7Z"/><path class="cls-5" d="M505.45,453.7l2.71,4.6-22.75,8.13s-1.52-1.62,4.06-4.88A177.62,177.62,0,0,1,505.45,453.7Z"/><path class="cls-5" d="M528.35,468.26a1.93,1.93,0,1,0,1.92-1.93A1.93,1.93,0,0,0,528.35,468.26Z"/><path class="cls-5" d="M484.27,468.26a1.93,1.93,0,1,0,1.93-1.93A1.93,1.93,0,0,0,484.27,468.26Z"/><path class="cls-5" d="M533,468.26a1.93,1.93,0,1,0,1.93-1.93A1.93,1.93,0,0,0,533,468.26Z"/><path class="cls-5" d="M479.59,468.26a1.93,1.93,0,1,0,1.93-1.93A1.94,1.94,0,0,0,479.59,468.26Z"/><rect class="cls-5" x="506.2" y="431.08" width="4.06" height="7.11"/><path class="cls-5" d="M503.16,427.33a4,4,0,0,0,4,4h2.23a4,4,0,0,0,4-4h0a4,4,0,0,0-4-4h-2.23a4,4,0,0,0-4,4Z"/><path class="cls-43" d="M478,423.7c-.09-.46-.15-3.39-.15-3.89,0-3.2,2.07-5.79,4.62-5.79H534c2.55,0,4.62,2.59,4.62,5.79,0,.5-.06,3.43-.15,3.89Z"/><path class="cls-5" d="M539.06,425.27c0,1-.58,1.77-1.28,1.77H478.69c-.7,0-1.27-.79-1.27-1.77h0c0-1,.57-1.77,1.27-1.77h59.09c.7,0,1.28.79,1.28,1.77Z"/><path class="cls-44" d="M536.17,394c-1.27.1-9.33.24-10.72.26-8.83.1-16.43-1.55-16.86-3.73a75.45,75.45,0,0,1-.23-27.34c.38-2.17,8.1-3.83,17.11-3.72,1.42,0,9.65.16,10.95.25A74,74,0,0,0,536.17,394Z"/><path class="cls-45" d="M537.39,359.71c1,0,1.67.48,1.54,1.05a73.92,73.92,0,0,0-.28,32.19c.13.57-.56,1-1.53,1.05h0c-1,0-1.86-.44-2-1a74.12,74.12,0,0,1,.21-32.27c.14-.57,1-1,2-1Z"/><path class="cls-46" d="M537.78,394a21.68,21.68,0,0,1-2.31.15,4.64,4.64,0,0,1-4.29-3.81,74.32,74.32,0,0,1,.12-26.93,4.74,4.74,0,0,1,4.39-3.81,22.25,22.25,0,0,1,2.36.16A73.92,73.92,0,0,0,537.78,394Z"/><path class="cls-47" d="M484.24,368.23s-.06,2.25-11,2.26-26.92-2.68-26.92-2.68l25.16-2.37S481.17,365,484.24,368.23Z"/><path class="cls-47" d="M454.94,368.61c-5.19.16-7.33,2.83-9.36,3.7a35.74,35.74,0,0,0-4.05,2.15c1.09-2.26,2.76-2.37,3.58-3.12s.61-.38-1.24-.45c-1.05-.05-2.84,1.86-4.14,2.93a4.15,4.15,0,0,1-1.84,1,22.77,22.77,0,0,1,2.95-3.47,26.54,26.54,0,0,1,5.11-3.74c1.09-.47,4.56-.7,7-.45C455.79,367.45,458.67,368.49,454.94,368.61Z"/><path class="cls-47" d="M446.23,367.71a28.87,28.87,0,0,0-4.62,1.68c-.47.38-2.43,2.57-2.43,2.57a5.18,5.18,0,0,0,2.31-1.11A43.56,43.56,0,0,1,446.23,367.71Z"/><path class="cls-48" d="M479.31,363.66s10.05.28,9.57,6.26c-.28,3.39-2.53,4.65-5.57,4.51-5.65-.26-12.06-.87-12.06-.87l-3.17-9.15Z"/><path class="cls-48" d="M481.43,364.41l8.78-31s1.29-4.54,3.71-3.78c3.48,1.1,1.9,4.83,1.68,7-.47,4.45,0,6.37-2.8,17.18-1.72,6.67-3.16,14.33-4.72,18.72-1.07,3-3.22-1.18-6.3-2.27C476.05,368.27,481.43,364.41,481.43,364.41Z"/><path class="cls-5" d="M498.46,323.44a12.78,12.78,0,1,0,9.73-15A12.65,12.65,0,0,0,498.46,323.44Z"/><path class="cls-5" d="M486.69,316.51a9.61,9.61,0,0,0,11.48,7.28l1.35-5a9.61,9.61,0,0,0,7.27-11.48l-.79-3.51a9.6,9.6,0,0,0-11.47-7.28l-2.35.53a9.61,9.61,0,0,0-7.27,11.47Z"/><path class="cls-11" d="M487.35,301.89a20.36,20.36,0,0,0,.82,2.59c2.3,5.81,7,9.56,11.1,9.23a29.68,29.68,0,0,0,3,7c1.28,2.21,4.62,4.09,4.62,4.09,1.62,4.05-14.6,17.63-15.29,17.27-1.48-.75,1.16-10.5,3.81-13.52,1.25-1.41,2.52-3.08,2.55-4,.09-3.34-1-4.05-2.58-5.59a7.87,7.87,0,0,0-6.07-1.36,1.08,1.08,0,0,1-.86-.17,7,7,0,0,1-.74-1.9l-1.73-7.73A6.77,6.77,0,0,1,487.35,301.89Z"/><path class="cls-5" d="M504.17,388.12s-4.15,3.76-5.32,4.09c-1.57.45-5.94-1.44-5.94-1.44s1.2-19.52.75-27.25-2.26-10-2.05-12.36c.33-3.82-2.77-5.77-1.85-8.68s3.21-13.37,3.37-11.92c1.35,12.37,6.09,2.83,7,1.34C500.69,331.08,504.17,388.12,504.17,388.12Z"/><path class="cls-48" d="M495.49,327.24s-5.5,4-5.42,5.9-2.85,7.37-1.66,15.64c1.35,9.45,1.85,15.79,1.57,21.82s-3.05,11.25-3.15,18.66c-.07,5.82,1.26,6.33,1.26,6.33a4.83,4.83,0,0,0,4.72-1c2.16-2,1.77-21.88,1.45-26.89s-1.89-16.8-2.25-20.24a36.18,36.18,0,0,1,.45-9.67,41.17,41.17,0,0,1,2.3-8.39c.11-.27,1.54-1.41,1.63-1.62C496.78,326.85,495.94,326.74,495.49,327.24Z"/><path class="cls-48" d="M497,325.22s1.15-.24.17,1.07a2.7,2.7,0,0,0-.56,1.35s-.49-.52-1.24.22a22.58,22.58,0,0,1-1.74,1.52,19.3,19.3,0,0,1,.84-2.08C495,326.8,497,325.22,497,325.22Z"/><path class="cls-5" d="M502.1,340.43a13.35,13.35,0,1,0,10.16-15.67A13.21,13.21,0,0,0,502.1,340.43Z"/><polygon class="cls-11" points="474.64 454.88 477.14 474.01 466.35 478.96 460.36 480.23 470.99 472.29 467.51 455.03 474.64 454.88"/><path class="cls-30" d="M477.84,476.9l-2.34.61-1.57-1.41-8.61,4.18L457.67,482a1.4,1.4,0,0,1,.17-.92c1-1.21,6.31-3.91,6.31-3.91s.08,1.77.85,1.82,7.36-3.3,8.88-4.23c2.63-1.61,3.13-2.61,3.33-2.48C477.74,472.64,477.84,476.9,477.84,476.9Z"/><polygon class="cls-11" points="448.61 428.27 440.04 444.57 428.19 443.99 422.29 442.36 435.38 440.21 442.53 426.28 448.61 428.27"/><path class="cls-30" d="M439.34,447.46l-2.36-.54-.74-2-10.63-.16-6.34-1.44a5.18,5.18,0,0,1,1.24-1c1.41-.57,6.43-.86,6.43-.86s-.53,1.39.12,1.78,8,.64,9.74.51c3.08-.21,4-.87,4.09-.67C441.21,443.63,439.34,447.46,439.34,447.46Z"/><path class="cls-5" d="M511.21,379.5l-6.39,2.78L502,390.62l-41.12-6.77s-4.19-1.29-6.86,5.32c-3.79,9.42-13.46,38.7-13.46,38.7l6.12,6.39,19.18-33.08s39.31,18.44,52.27,14.46c5-1.53,8.77-10.31,8.06-19.18a114.68,114.68,0,0,0-2-13.35Z"/><path class="cls-5" d="M505.65,415.42l-31.45-2.26,2.71,48.53-9.28.3-6.85-56.84s1.85-8.46,7.86-7.18S489.18,410.38,505.65,415.42Z"/><path class="cls-48" d="M501.68,391.82s-.75-19.75-1.33-29.11-.45-27.44-.58-29.69a27.64,27.64,0,0,1,.5-5.43s2.84-4.85,6-4.43c2.79.37,7.09,4.25,9.79,6s2.34,34.78,2.48,36.44c.47,6,4,11.92,6.74,17.68,1.73,3.69,2.13,9.52,2.13,9.52S511.4,389.78,501.68,391.82Z"/><polygon class="cls-48" points="505.29 321.62 503.04 323.85 499.86 327.25 501.47 331.08 507.07 323.22 505.29 321.62"/><path class="cls-11" d="M509.6,373.22s-.34,2.41-13.27,1-31.6-6.43-31.6-6.43l30.11.76S506.35,369.32,509.6,373.22Z"/><path class="cls-11" d="M474.81,369.76c-6.17-.51-9,2.09-11.54,2.76a43,43,0,0,0-5,1.78c1.55-2.29,3.55-2.2,4.6-2.89s.77-.33-1.41-.66c-1.24-.18-3.59,1.64-5.25,2.62a5.29,5.29,0,0,1-2.31.85,25.62,25.62,0,0,1,3.91-3.35,32.22,32.22,0,0,1,6.5-3.36c1.36-.36,5.49-.15,8.4.44C476,368.63,479.25,370.13,474.81,369.76Z"/><path class="cls-37" d="M464.59,367.64s-4.8.71-5.67,1.21c-.6.34-3.19,2.45-3.19,2.45a6.58,6.58,0,0,0,2.87-.9A54.28,54.28,0,0,1,464.59,367.64Z"/><path class="cls-48" d="M504.29,367.64l1.44-30.56s1.64-6.4,4-7.87c2.85-1.74,6.77,1.49,6.77,1.49s2,4.77.66,27.3c-.9,15.07-2.29,22.87-9.44,21.77-6.67-1-14.2-2.52-14.2-2.52L490.89,367Z"/><path class="cls-5" d="M478.59,375.23s0,0,0-.05l0-1.51H415.84v1.51a.08.08,0,0,0,0,.05l.16.28c.8,1.32,2.25,1.55,3.91,1.55h54.61c1.65,0,3.1-.23,3.91-1.55Z"/><path class="cls-11" d="M463.46,375.49a0,0,0,0,0,0,0l.16.23a2.62,2.62,0,0,0,.92.77h9.54c1.59,0,3-.19,3.76-1.26L478,375l0,0,0-.75H463.46Z"/><rect class="cls-11" x="423.64" y="374.02" width="31.36" height="1.07"/><path class="cls-5" d="M463.12,373.61,455,342.78a2,2,0,0,0-1.86-1.48h-44a1.1,1.1,0,0,0-1.08,1.48l8.13,30.83Z"/><path class="cls-11" d="M438.22,357.46a2.12,2.12,0,0,1-2.1,2.85,4,4,0,0,1-3.6-2.85,2.12,2.12,0,0,1,2.1-2.86A4,4,0,0,1,438.22,357.46Z"/><polygon class="cls-11" points="408.61 482.99 402.19 482.99 412.78 380.35 422.1 380.35 408.61 482.99"/><polygon class="cls-11" points="477.97 482.99 471.55 482.99 482.15 380.35 491.46 380.35 477.97 482.99"/><polygon class="cls-11" points="545.41 482.99 551.83 482.99 541.23 380.35 531.92 380.35 545.41 482.99"/><rect class="cls-11" x="405.13" y="377.02" width="145.1" height="6"/><rect class="cls-11" x="405.13" y="377.02" width="71.24" height="6"/><path class="cls-5" d="M281.65,558.63,277,565.71l39,12.5s2.6-2.5-7-7.5C297.91,564.88,281.65,558.63,281.65,558.63Z"/><path class="cls-5" d="M274.72,558.63l4.65,7.08-39,12.5s-2.61-2.5,7-7.5C258.47,564.88,274.72,558.63,274.72,558.63Z"/><rect class="cls-5" x="274.11" y="537.56" width="8.15" height="29.02"/><path class="cls-5" d="M282.18,560.12l-4,6.76,33.39,11.92s2.23-2.37-6-7.15A259.78,259.78,0,0,0,282.18,560.12Z"/><path class="cls-5" d="M274.2,560.12l4,6.76-33.4,11.92s-2.23-2.37,6-7.15A259.78,259.78,0,0,1,274.2,560.12Z"/><path class="cls-5" d="M307.81,581.49a2.84,2.84,0,1,0,2.83-2.84A2.83,2.83,0,0,0,307.81,581.49Z"/><path class="cls-5" d="M243.11,581.49a2.83,2.83,0,1,0,2.83-2.84A2.83,2.83,0,0,0,243.11,581.49Z"/><path class="cls-5" d="M314.67,581.49a2.84,2.84,0,1,0,2.83-2.84A2.83,2.83,0,0,0,314.67,581.49Z"/><path class="cls-5" d="M236.25,581.49a2.84,2.84,0,1,0,2.83-2.84A2.83,2.83,0,0,0,236.25,581.49Z"/><rect class="cls-5" x="275.31" y="526.92" width="5.96" height="10.44"/><path class="cls-5" d="M270.84,521.41a5.81,5.81,0,0,0,5.81,5.81h3.28a5.82,5.82,0,0,0,5.82-5.81h0a5.82,5.82,0,0,0-5.82-5.82h-3.28a5.81,5.81,0,0,0-5.81,5.82Z"/><path class="cls-48" d="M234,516.09c-.15-.69-.23-5-.23-5.72,0-4.69,3-8.49,6.78-8.49h75.53c3.74,0,6.77,3.8,6.77,8.49,0,.74-.08,5-.22,5.72Z"/><path class="cls-5" d="M323.53,518.39c0,1.44-.84,2.6-1.87,2.6H234.93c-1,0-1.88-1.16-1.88-2.6h0c0-1.44.84-2.6,1.88-2.6h86.73c1,0,1.87,1.16,1.87,2.6Z"/><path class="cls-49" d="M263.74,501.64s48.57.11,67.32.39c13,.2,14.15-18.3,9-21.08-15.54-8.45-64-12.8-64-12.8l-33,30.27S245,498.38,263.74,501.64Z"/><path class="cls-50" d="M309.54,402.53S322,399,327.46,415.34c8.34,25,7.6,48,6.44,52.87-.53,2.25-2.14,10-16.09,10.33-5.66.12-3.39-12-3.39-12a264,264,0,0,1-7.5-27.71C303.06,421.4,309.54,402.53,309.54,402.53Z"/><path class="cls-50" d="M319.42,403.94l-32-10.36L263.15,392l-26.57,8s-8.69,6-.62,25.24,5,49.43,5,49.43l68.52,2.19a558.84,558.84,0,0,1,5.84-55.78C316.3,414.84,316.43,407.51,319.42,403.94Z"/><path class="cls-11" d="M286,401.13c-.47,3.7-3.49,6.91-6.68,7.06h-9c-3.18-.15-6.21-3.36-6.68-7.06l-2.22-18.33c-.5-3.65,1.68-11,6.5-13.18a17.31,17.31,0,0,1,13.86,0c4.81,2.17,7,9.53,6.5,13.18Q287.14,392,286,401.13Z"/><polygon class="cls-51" points="274.46 408.65 268.71 418.07 258.18 404.9 259.83 397.97 263.25 395.17 263.3 400.38 274.46 408.65"/><polygon class="cls-51" points="275.15 408.65 280.9 418.07 290.7 405.8 289.09 398.28 286.64 395.11 285.64 401.27 275.15 408.65"/><path class="cls-52" d="M273.45,358a7.23,7.23,0,0,0-6.06,3.28H264.9a5.61,5.61,0,0,0-5.61,5.61v13.87h3.95v-5.64a4,4,0,0,1,3.95-3.95h1.06a7.24,7.24,0,0,0,7.25-7.24V358Z"/><path class="cls-11" d="M266.45,385.92a3.44,3.44,0,0,1-3.44,3.43h-.28a3.44,3.44,0,0,1-3.44-3.43v-4.18a3.43,3.43,0,0,1,3.44-3.43H263a3.45,3.45,0,0,1,3.15,2"/><path class="cls-5" d="M270.37,363.5V358h11.9a7.25,7.25,0,0,1,7.24,7.25v5.5h-11.9A7.24,7.24,0,0,1,270.37,363.5Z"/><path class="cls-11" d="M288.49,391.18c0,2.88-2.21,7.76-5.86,9.3a21.06,21.06,0,0,1-15.78,0c-3.66-1.54-5.84-6.41-5.86-9.3V366.66c0-2.9,2.87-5.34,6.44-5.41h14.62c3.57.07,6.46,2.5,6.44,5.41Z"/><path class="cls-5" d="M277.55,358a7.23,7.23,0,0,1,6.06,3.28h2.49a5.61,5.61,0,0,1,5.61,5.61v13.87h-3.95v-5.64a4,4,0,0,0-3.95-3.95h-5.05a7.24,7.24,0,0,1-7.24-7.24V358Z"/><path class="cls-11" d="M284.61,381.74a3.42,3.42,0,0,1,3.43-3.43h.29a3.43,3.43,0,0,1,3.43,3.43v4.17a3.44,3.44,0,0,1-3.43,3.44H288a3.43,3.43,0,0,1-3.14-2.05"/><path class="cls-5" d="M271.52,364.93a7.46,7.46,0,0,0,.14-1.43V358h-5.13a7.25,7.25,0,0,0-7.24,7.25v5.5h5.13a7.31,7.31,0,0,0,1.49-.15A7.22,7.22,0,0,1,271.52,364.93Z"/><path class="cls-53" d="M207.93,594.52c-.75.9-.2,3.29-.2,3.29s13.07,1.45,17.28.46a21.74,21.74,0,0,0,4.68-2.19c.29-.17.81-1.17,1.09-1.34.53-.31.8.21,1.25-.07a13.74,13.74,0,0,0,2-1.39c1.15-6-.38-8.41-.38-8.41s-11.13-3.7-13.22-1.12C215.52,589.82,209.56,592.53,207.93,594.52Z"/><path class="cls-53" d="M330.13,588l.9,9.88,9.89,1s.69-1.31,1.52-1.23,1.48,1.53,2.44,1.62l5.31.52,19.84,2s.65-2,.17-2.76a9.88,9.88,0,0,0-2.91-1.59c-5-1.94-19.15-7.85-21.21-13C343.57,578.12,330.13,588,330.13,588Z"/><path class="cls-11" d="M315.17,463l-33.43,13.66s23.71,3.38,38.54.36C330.31,474.92,315.63,462.52,315.17,463Z"/><path class="cls-54" d="M239.28,483.76s-3.21,30.52-2.75,46.66c.34,12.18.38,35.51-2.52,55.4-.18,1.21-15.73.3-15.73.3S212.7,510.43,211,498,214.2,476.51,239.28,483.76Z"/><path class="cls-55" d="M337.09,491.11s-5,7.92-18.75,9.79c-5,.68,8,88.6,8,88.6l20.3-6.5-3.92-97.23Z"/><path class="cls-56" d="M281.06,500.9s-26.54,3.79-44.27,5.65c-6.49.68-12.12-17.51-12.87-18.3a13.4,13.4,0,0,0-9.26-4.52c3.83-4.15,23.72-8,44.5-12.87s23.94-1.81,23.94-1.81Z"/><path class="cls-57" d="M259.16,470.86c-20.78,4.87-40.67,8.72-44.5,12.87a13.4,13.4,0,0,1,9.26,4.52c.2.22,1.4,6.05,2.25,8.13-3.38-6.1,45.45-23.31,56-27.77C280.2,468,274.45,467.27,259.16,470.86Z"/><path class="cls-50" d="M251.26,400.28s-10.67-8.36-21.11,7.16c-15.3,22.74-22,46.93-24.38,53.93-1.86,5.37-.84,20.55,5.42,26.81,1.51,1.5,10.54.3,10.54.3l5.93-4.11-2.48-4.77-.13-3.77s7.58-18.3,16.9-35.59S251.26,400.28,251.26,400.28Z"/><path class="cls-11" d="M225.17,469.81l34.65,1.81s-33.37,15.31-34.47,12.67C219.09,469.34,225.17,469.81,225.17,469.81Z"/><path class="cls-37" d="M244.24,468.75c2-1,1.84-1,1.84-1a8.29,8.29,0,0,0,4.53,2.61c1.33.2,5.63.26,5.63.26l6.38.15,3-.17a5.56,5.56,0,0,1,2.12.07c1.28.83.18,1.49.18,1.49l-11.44,1.62,11,1.36s1.38.41,1.45,1.16-.4.67-.4.67l-12.77,1.37,5.6,1.33s1.34.44,1.44,1.16.17,1,.17,1l-11.75-1.15S242.21,469.72,244.24,468.75Z"/><path class="cls-37" d="M256.91,475.82l7.68,1.4a6.28,6.28,0,0,1,2.53.69,1,1,0,0,1,.37,1.43l-11.78-1Z"/><path class="cls-51" d="M305.08,481.86a.43.43,0,0,1,0-.07l0-2.18H236.81v2.18a.15.15,0,0,0,0,.07l.24.41c1.16,1.89,3.25,2.23,5.63,2.23h56.53c2.39,0,4.47-.34,5.64-2.23Z"/><rect class="cls-11" x="248.36" y="480.11" width="45.2" height="1.54"/><path class="cls-51" d="M305,479.84l.18-44.76A2.11,2.11,0,0,0,303.1,433H239.2a2.15,2.15,0,0,0-2.15,2.13l-.18,44.76Z"/><path class="cls-11" d="M275.18,456.39a4.14,4.14,0,1,1-4.11-4.13A4.1,4.1,0,0,1,275.18,456.39Z"/><polygon class="cls-51" points="220.68 487.12 218.3 471.93 222.24 467.87 230.99 469.27 229.21 486.08 220.68 487.12"/><polygon class="cls-51" points="326.91 476.22 327.82 470.63 316.75 460.69 310.77 463.39 318.6 478.38 326.91 476.22"/><polygon class="cls-11" points="174.14 639.94 164.71 639.94 180.27 489.28 193.94 489.28 174.14 639.94"/><polygon class="cls-11" points="369.83 639.94 379.26 639.94 363.7 489.28 350.03 489.28 369.83 639.94"/><rect class="cls-11" x="267.65" y="484.39" width="109.25" height="8.8"/><rect class="cls-11" x="169.03" y="484.39" width="99.46" height="8.8"/></g></g></svg>