<svg xmlns="http://www.w3.org/2000/svg" xmlns:xlink="http://www.w3.org/1999/xlink" viewBox="0 0 396.69 444.61"><defs><style>.cls-1,.cls-7{fill:#3b3e3f;}.cls-2{fill:#f4f4f4;}.cls-3{fill:url(#linear-gradient);}.cls-4{fill:url(#linear-gradient-2);}.cls-5{fill:url(#linear-gradient-3);}.cls-6{fill:url(#linear-gradient-4);}.cls-7,.cls-9{stroke:#3b3e3f;}.cls-7,.cls-8,.cls-9{stroke-miterlimit:10;}.cls-7,.cls-8{stroke-width:1px;}.cls-8{fill:#fff;stroke:#fff;}.cls-9{fill:none;stroke-width:6.97px;}.cls-10{fill:url(#linear-gradient-5);}.cls-11{fill:url(#linear-gradient-6);}.cls-12{fill:url(#linear-gradient-7);}.cls-13{fill:url(#linear-gradient-8);}</style><linearGradient id="linear-gradient" x1="50.08" y1="317.17" x2="241.68" y2="317.17" gradientUnits="userSpaceOnUse"><stop offset="0" stop-color="#fee870"/><stop offset="0.08" stop-color="#fee97c"/><stop offset="0.24" stop-color="#ffec91"/><stop offset="0.43" stop-color="#ffeea0"/><stop offset="0.65" stop-color="#ffefa8"/><stop offset="1" stop-color="#ffefab"/></linearGradient><linearGradient id="linear-gradient-2" x1="115.83" y1="291.17" x2="140.58" y2="291.17" xlink:href="#linear-gradient"/><linearGradient id="linear-gradient-3" x1="153.73" y1="344.61" x2="215.57" y2="344.61" xlink:href="#linear-gradient"/><linearGradient id="linear-gradient-4" x1="141.82" y1="169.93" x2="236.47" y2="169.93" gradientUnits="userSpaceOnUse"><stop offset="0" stop-color="#fee6a0"/><stop offset="0.17" stop-color="#fed49c"/><stop offset="0.51" stop-color="#ffb695"/><stop offset="0.8" stop-color="#ffa391"/><stop offset="1" stop-color="#ff9c8f"/></linearGradient><linearGradient id="linear-gradient-5" x1="298.02" y1="124.58" x2="309.74" y2="131.34" gradientUnits="userSpaceOnUse"><stop offset="0" stop-color="#ffc371"/><stop offset="0.17" stop-color="#ffbd71"/><stop offset="0.39" stop-color="#ffac70"/><stop offset="0.65" stop-color="#ff906f"/><stop offset="0.93" stop-color="#ff6a6d"/><stop offset="1" stop-color="#ff5f6d"/></linearGradient><linearGradient id="linear-gradient-6" x1="376.61" y1="82.44" x2="395.25" y2="93.2" xlink:href="#linear-gradient-5"/><linearGradient id="linear-gradient-7" x1="299.47" y1="16.52" x2="356.8" y2="49.62" xlink:href="#linear-gradient-5"/><linearGradient id="linear-gradient-8" x1="343.68" y1="126.29" x2="372.91" y2="143.16" xlink:href="#linear-gradient-5"/></defs><title>requeriments</title><g id="Layer_2" data-name="Layer 2"><g id="_3" data-name="3"><path class="cls-1" d="M229.43,381l8.12-5s14.89,5.61,26.68-3.67c0,0,6-4.45,4.84,1.54S255.34,387.23,250.89,388c0,0-15.08,15.08-20.11,12.57,0,0-2.9-2.32-1.55-7Z"/><path class="cls-1" d="M186.89,412.75s7.54-1.55,9.86-.58,5.22,7.15,7.35,9.86,11.4,10.25,19.14,11.8c0,0-6.58,10.83-21.46,4.64,0,0-18.57,1.54-22.44-4.64Z"/><path class="cls-1" d="M14.34,343.09H153.07A13.91,13.91,0,0,1,167,357v73.68a13.92,13.92,0,0,1-13.91,13.92H13.92A13.92,13.92,0,0,1,0,430.61l.42-73.69A13.91,13.91,0,0,1,14.34,343.09Z"/><path class="cls-2" d="M108.09,96.71s12.12,47.18-18.82,53.88c-1.83.4-17-6.44-23.72-18.56C64.64,130.39,61.17,66.29,108.09,96.71Z"/><path class="cls-2" d="M65.55,132s1.81,9.54.26,13h22s-4.25-8.89-3-16.37C84.89,128.68,80.25,133.84,65.55,132Z"/><path class="cls-3" d="M50.08,296.78S56.53,340,93.65,344.22s59.18-22.43,92.43-69.23c0,0,10,38.76,22.06,69.36,8.39,21.29,19.67,37.42,21.26,38.85l12.28-5.65S205,275,201.94,263.78s-8.51-16.63-21.66-9.28S120.34,299,120.34,299s-7.41-11.34-4.83-16.63C115.51,282.34,96,301.16,50.08,296.78Z"/><path class="cls-4" d="M115.83,289.82l24.75-6.45L120.34,299S116.34,291.62,115.83,289.82Z"/><path class="cls-5" d="M153.73,316.63s22.69-26.55,32.35-41.64c0,0,23.08-10.95,29.49,7.87l-14.4,134.21-15.86.33S184,371.58,185.23,356c1.08-14,9.23-56.87,9.23-56.87S180.28,309.67,153.73,316.63Z"/><path class="cls-6" d="M169.33,144c3.5-6.94,12.71-12.61,20.47-12.61h37.31c7.77,0,11.44,5.76,8.16,12.8l-24,51.55c-3.28,7-12.32,12.8-20.08,12.8H150.94c-7.77,0-11.26-5.67-7.77-12.61Z"/><path class="cls-7" d="M65.55,132s12.89,2.06,19.34-3.35-2.58-26.81,15-24l1.81-4.64a7.18,7.18,0,0,1,6.44-3.35s13.67-10.57,1-22.69c0,0,.78,9.8-11.08,5.67,0,0-39.45-11.08-40.48,32C57.56,111.66,56.79,116.56,65.55,132Z"/><path class="cls-7" d="M65.81,145.05h22s1.55,10.06,4.26,12.38l17.33,9.09a56.71,56.71,0,0,1,5.48,3.49c1.46,1.27,2.52,4.51,3.32,7.31,4.91,17.23,20.28,67.12,20.28,67.12s0,2.9,6.57-1.74L185.31,223l2.13,9.09-40.8,30.55s-11.6,9.86-15.86-4.84-16.44-37.51-16.44-37.51-6.51,49.18,1.49,61.56c0,0-21.4,19.85-65.75,14.95,0,0-22.94-40.51-16.11-121.53.19-2.26.37-4.85,1.75-6.73,1.16-1.6,6.12-3.3,6.12-3.3l20.49-8.95A21.13,21.13,0,0,0,65.81,145.05Z"/><path class="cls-2" d="M190.92,229.55l-2.32-4.06s2.51-16.43,6.19-21.08c0,0,5-4.06,3.67,6.58,0,0,11.22-11.22,12.57-15.86,0,0,3.67,7.35,1.16,12.77l-2.51,5.41S198.07,229.1,190.92,229.55Z"/><path class="cls-2" d="M168.29,182s-4.25-7.34-3.86-9.66,12-15.47,16-16.83,16.82,1.36,16.82,1.36-2.51,4.83-4.83,5-14.7,4.84-16.83,13.93S168.29,182,168.29,182Z"/><g id="Capa_6" data-name="Capa 6"><line class="cls-8" x1="176.87" y1="148.51" x2="224.31" y2="148.51"/><line class="cls-8" x1="175" y1="151.4" x2="222.44" y2="151.4"/><line class="cls-8" x1="173.75" y1="154.3" x2="221.19" y2="154.3"/><line class="cls-8" x1="172.5" y1="157.2" x2="219.94" y2="157.2"/><line class="cls-8" x1="168.85" y1="163.98" x2="216.29" y2="163.98"/><line class="cls-8" x1="166.98" y1="166.88" x2="214.42" y2="166.88"/><line class="cls-8" x1="165.11" y1="169.77" x2="212.55" y2="169.77"/><line class="cls-8" x1="163.86" y1="172.67" x2="211.3" y2="172.67"/><line class="cls-8" x1="162.61" y1="175.57" x2="199.47" y2="175.57"/><line class="cls-8" x1="161.21" y1="184.69" x2="208.65" y2="184.69"/><line class="cls-8" x1="159.34" y1="187.59" x2="206.78" y2="187.59"/><line class="cls-8" x1="157.47" y1="190.49" x2="204.91" y2="190.49"/><line class="cls-8" x1="156.22" y1="193.38" x2="203.66" y2="193.38"/><line class="cls-8" x1="154.98" y1="196.28" x2="202.42" y2="196.28"/><line class="cls-8" x1="190.26" y1="138.81" x2="215.21" y2="138.81"/></g><polygon class="cls-7" points="124.98 199.77 162.11 176.76 166.94 186.24 129.81 216.02 124.98 199.77"/><line class="cls-9" x1="330.36" y1="368.09" x2="330.73" y2="61.38"/><path class="cls-9" d="M330.68,174.34S367.73,109.68,385.93,91"/><path class="cls-9" d="M330.88,155S318.2,138.43,306.79,128"/><path class="cls-1" d="M308.3,367h48.19a6.44,6.44,0,0,1,6.44,6.45v64.68a6.44,6.44,0,0,1-6.44,6.45H308.05a6.44,6.44,0,0,1-6.44-6.47l.24-64.69A6.45,6.45,0,0,1,308.3,367Z"/><ellipse class="cls-10" cx="303.88" cy="127.96" rx="6.77" ry="6.76"/><ellipse class="cls-11" cx="385.93" cy="87.82" rx="10.76" ry="10.75"/><ellipse class="cls-12" cx="328.13" cy="33.07" rx="33.1" ry="33.07"/><ellipse class="cls-13" cx="358.3" cy="134.72" rx="16.87" ry="16.86"/></g></g></svg>