<svg xmlns="http://www.w3.org/2000/svg" xmlns:xlink="http://www.w3.org/1999/xlink" viewBox="0 0 478.02 391.69"><defs><style>.cls-1{fill:url(#linear-gradient);}.cls-2{fill:url(#linear-gradient-2);}.cls-3{fill:url(#linear-gradient-3);}.cls-13,.cls-4{fill:#3b3e3f;}.cls-10,.cls-12,.cls-5{fill:#fff;}.cls-5{stroke:#fff;stroke-miterlimit:10;stroke-width:1px;}.cls-6{fill:url(#linear-gradient-4);}.cls-7{fill:url(#linear-gradient-5);}.cls-8{fill:url(#linear-gradient-6);}.cls-9{fill:url(#linear-gradient-7);}.cls-11{fill:#fcb765;}.cls-12,.cls-13{fill-rule:evenodd;}.cls-14{fill:#fee6a0;}</style><linearGradient id="linear-gradient" x1="353.8" y1="329.64" x2="478.02" y2="329.64" gradientUnits="userSpaceOnUse"><stop offset="0" stop-color="#ffc371"/><stop offset="0.17" stop-color="#ffbd71"/><stop offset="0.39" stop-color="#ffac70"/><stop offset="0.65" stop-color="#ff906f"/><stop offset="0.93" stop-color="#ff6a6d"/><stop offset="1" stop-color="#ff5f6d"/></linearGradient><linearGradient id="linear-gradient-2" x1="287.25" y1="24.62" x2="336.52" y2="24.62" xlink:href="#linear-gradient"/><linearGradient id="linear-gradient-3" x1="0" y1="255.28" x2="98.25" y2="255.28" xlink:href="#linear-gradient"/><linearGradient id="linear-gradient-4" x1="279.84" y1="235.8" x2="414.24" y2="235.8" gradientUnits="userSpaceOnUse"><stop offset="0" stop-color="#fee870"/><stop offset="0.08" stop-color="#fee97c"/><stop offset="0.24" stop-color="#ffec91"/><stop offset="0.43" stop-color="#ffeea0"/><stop offset="0.65" stop-color="#ffefa8"/><stop offset="1" stop-color="#ffefab"/></linearGradient><linearGradient id="linear-gradient-5" x1="278.06" y1="272.91" x2="415.91" y2="272.91" xlink:href="#linear-gradient-4"/><linearGradient id="linear-gradient-6" x1="278.06" y1="315.26" x2="415.91" y2="315.26" xlink:href="#linear-gradient-4"/><linearGradient id="linear-gradient-7" x1="278.06" y1="357.62" x2="415.91" y2="357.62" xlink:href="#linear-gradient-4"/></defs><title>system architecture</title><g id="Layer_2" data-name="Layer 2"><g id="_3" data-name="3"><ellipse class="cls-1" cx="415.91" cy="329.64" rx="62.11" ry="62.05"/><ellipse class="cls-2" cx="311.89" cy="24.62" rx="24.64" ry="24.62"/><ellipse class="cls-3" cx="49.13" cy="255.28" rx="49.13" ry="49.08"/><path class="cls-4" d="M306.38,68.86a165.12,165.12,0,0,1,29.77-.48c5,.39,10,1,15,1.77s10,1.87,14.93,3.17a150.28,150.28,0,0,1,56,27.71,137.35,137.35,0,0,1,12.07,10.88c1.92,1.94,3.77,4,5.6,6s3.54,4.21,5.22,6.41a128.33,128.33,0,0,1,16.75,29,131,131,0,0,1,8.8,32.87q.54,4.25.83,8.52c.08,1.42.19,2.81.2,4.37l0,2.28,0,2.28a102.74,102.74,0,0,1-2,18.18,112.09,112.09,0,0,1-5.09,17.46,120.71,120.71,0,0,1-7.66,16.2,140.87,140.87,0,0,1-20.9,27.81c-15.82,16.49-34.4,29-53.83,38.72a250.29,250.29,0,0,1-29.89,12.47c-5.08,1.76-10.21,3.31-15.36,4.74s-10.33,2.73-15.53,3.87a309.45,309.45,0,0,1-31.47,5.07Q274,349.87,258.15,350q-7.92,0-15.85-.33c-5.28-.25-10.57-.6-15.84-1.12s-10.55-1.15-15.8-1.95-10.49-1.71-15.7-2.79a282.81,282.81,0,0,1-31-8.25c-5.11-1.65-10.15-3.55-15.16-5.55s-10-4.17-14.86-6.52a223.57,223.57,0,0,1-28.47-16.38,181.66,181.66,0,0,1-25.9-21.4,143.18,143.18,0,0,1-21.46-27.25,116.22,116.22,0,0,1-13.7-33.2,105.3,105.3,0,0,1-2.63-18.11c-.18-3-.19-6.1-.11-9.14.06-1.49.17-2.88.25-4.33s.25-2.86.4-4.29a125.9,125.9,0,0,1,8.34-33.24,121.3,121.3,0,0,1,7.36-15.27,128.28,128.28,0,0,1,9.18-14A135.26,135.26,0,0,1,77.9,114.36a142.9,142.9,0,0,1,11.86-11,167,167,0,0,1,54.63-29.7q7.26-2.39,14.63-4.14c4.91-1.17,9.85-2.12,14.78-2.92a180,180,0,0,1,29.68-2.21C194.15,67.57,185.05,71,176.3,75c-4.39,2-8.68,4.08-12.88,6.31s-8.32,4.56-12.32,7a190.17,190.17,0,0,0-22.59,16.17q-5.25,4.4-10,9.14c-3.18,3.18-6.21,6.44-9,9.82a122.62,122.62,0,0,0-14.51,21.4,110.66,110.66,0,0,0-5.2,11.4c-.38,1-.7,1.94-1.06,2.9s-.66,2-1,2.93C87.08,164,86.5,166,86,168a94.22,94.22,0,0,0-2.77,23.85c0,1,0,2,.06,3l.17,3c.15,1.82.32,3.63.61,5.42a67.4,67.4,0,0,0,2.55,10.56A68.91,68.91,0,0,0,91,223.89a80.42,80.42,0,0,0,5.88,9.64A102.78,102.78,0,0,0,112.69,251a138,138,0,0,0,19.9,14.6,180.08,180.08,0,0,0,22.62,11.68,215.31,215.31,0,0,0,24.4,8.85q6.25,1.88,12.65,3.42c4.26,1,8.56,1.9,12.88,2.74,8.64,1.64,17.4,2.8,26.22,3.58S249,297,257.92,296.93s17.74-.47,26.54-1.32a260.16,260.16,0,0,0,26.17-3.82,236.7,236.7,0,0,0,25.45-6.38,208.68,208.68,0,0,0,24.27-9.11,174.39,174.39,0,0,0,22.43-11.94,138.34,138.34,0,0,0,19.6-14.88,102,102,0,0,0,15.41-17.67,74.92,74.92,0,0,0,9.59-20,65.27,65.27,0,0,0,2.21-10.64,93.91,93.91,0,0,0,.58-11.69,97.85,97.85,0,0,0-.87-12.08,93.11,93.11,0,0,0-2.32-12c-4.06-15.86-12.33-31-23.85-44.22q-4.32-4.93-9.21-9.51c-3.26-3-6.68-5.95-10.27-8.72s-7.33-5.4-11.21-7.85-7.9-4.8-12-7-8.37-4.21-12.71-6.09-8.78-3.65-13.3-5.22A252.54,252.54,0,0,0,306.38,68.86Z"/><polygon class="cls-5" points="278.34 356.15 278.34 234.45 415.91 234.45 415.91 354.96 278.34 356.15"/><ellipse class="cls-6" cx="347.04" cy="235.8" rx="67.2" ry="21.7"/><path class="cls-7" d="M406.8,253.7c-11.16,7-33.73,11.77-59.76,11.77s-48.74-4.81-59.87-11.83c-4.62-2.62-7.64-5.57-8.64-8.71a9.55,9.55,0,0,0-.47,3V273s2,10.74,19.43,18.62c10.36,4.7,24.93,9.23,49.55,9.23,0,0,34.31-1,51.16-9.8s17.65-17.89,17.65-17.89l0-23.31a10.5,10.5,0,0,0-.72-4C413.91,248.68,411,251.33,406.8,253.7Z"/><path class="cls-8" d="M406.8,296.05c-11.16,7-33.73,11.77-59.76,11.77S298.3,303,287.17,296c-4.62-2.62-7.64-5.56-8.64-8.71a9.57,9.57,0,0,0-.47,3v25.09s2,10.74,19.43,18.63c10.36,4.69,24.93,9.22,49.55,9.22,0,0,34.31-1,51.16-9.79s17.65-17.89,17.65-17.89l0-23.32a10.5,10.5,0,0,0-.72-4C413.91,291,411,293.68,406.8,296.05Z"/><path class="cls-9" d="M406.8,338.4c-11.16,7-33.73,11.78-59.76,11.78s-48.74-4.81-59.87-11.84c-4.62-2.61-7.64-5.56-8.64-8.7a9.5,9.5,0,0,0-.47,3v25.1s2,10.74,19.43,18.62c10.36,4.69,24.93,9.23,49.55,9.23,0,0,34.31-1,51.16-9.8s17.65-17.89,17.65-17.89l0-23.32a10.53,10.53,0,0,0-.72-4C413.91,333.39,411,336,406.8,338.4Z"/><path class="cls-4" d="M210.3,51.33c15.89,9.54,42.35,16.39,35,29.74-22.47,40.7,20.17,48.21,53.5,12.87,53-56.17-6.08-82.64-33.27-79.83C179.94,23,193.49,41.25,210.3,51.33Z"/><path class="cls-10" d="M210.31,84.32l-4.42-1.85a4.52,4.52,0,0,1-2.5-2.59L202,76.2a.25.25,0,0,1,.39-.29l3.76,2.89a1.31,1.31,0,0,0,1.36.15,3.35,3.35,0,0,1,3.12.14l1.55.91Z"/><path class="cls-4" d="M265.31,24.51l-2-10.4-1.84.36a3.93,3.93,0,0,0-3.12,4.62l.15.81A5.83,5.83,0,0,0,265.31,24.51Z"/><path class="cls-11" d="M281.93,107.84H253v-29l-5.37-29.41a7,7,0,0,1,6.51-9.53h33.68a7,7,0,0,1,6.51,9.53l-8.51,29.41V103.2Z"/><path class="cls-10" d="M268.06,33.71l3.7-.72a3,3,0,0,0,2.38-3.52l-2.09-10.8L260.13,21l1.64,8.48A5.37,5.37,0,0,0,268.06,33.71Z"/><polygon class="cls-10" points="265.87 27.77 271.55 29.07 274.52 39.96 267.48 42.38 264.61 39.96 265.87 27.77"/><path class="cls-4" d="M274,18.46h0a0,0,0,0,1,0,0V27a0,0,0,0,1,0,0h-1.78a0,0,0,0,1,0,0V20.24A1.78,1.78,0,0,1,274,18.46Z" transform="translate(545.64 -6.84) rotate(169.05)"/><path class="cls-4" d="M265.25,20.2l8-1.55-.67-3.43A4.07,4.07,0,0,0,267.84,12l-4,.78a3.78,3.78,0,0,0,1.44,7.42Z"/><path class="cls-4" d="M272.31,22.18l-1.86-9.61-1.75.34,1.52,7.86A1.78,1.78,0,0,0,272.31,22.18Z"/><path class="cls-10" d="M273.47,22.48a1.08,1.08,0,1,1-1.27-.85A1.08,1.08,0,0,1,273.47,22.48Z"/><path class="cls-11" d="M210.31,84.32l30.31,4a6.5,6.5,0,0,0,6.35-5.1l12.67-36.39L247.42,45,237,77.3,212.21,80Z"/><rect class="cls-4" x="203.15" y="75.83" width="33.53" height="3.44" rx="1.72" transform="translate(439.83 155.1) rotate(180)"/><path class="cls-4" d="M206.23,78l-10.3-33.57a.91.91,0,1,0-1.73.54l10.29,33.57a.91.91,0,1,0,1.74-.54Z"/><polygon class="cls-11" points="275.46 81.7 294.34 48.06 284.74 42.67 269.35 70.1 233.05 69.98 233.68 74.65 275.46 81.7"/><path class="cls-10" d="M233.05,70l-4.77.56a4.48,4.48,0,0,0-3.11,1.8l-2.32,3.16a.25.25,0,0,0,.29.38l4.41-1.74a1.31,1.31,0,0,1,1.35.24,3.32,3.32,0,0,0,3,.72l1.74-.45Z"/><path class="cls-5" d="M285.82,102.48l0,1.93c-.05,0,.14.91.09.94s-17.6,13.56-33.46,11.2l.51-14.07Z"/><path id="Path_1647" data-name="Path 1647" class="cls-12" d="M17,175.17H153.26a3,3,0,0,1,2,.72,2.32,2.32,0,0,1,.83,1.75v79.9a2.35,2.35,0,0,1-.83,1.75,3,3,0,0,1-2,.72H17a2.66,2.66,0,0,1-2.82-2.47v-79.9A2.66,2.66,0,0,1,17,175.17Z"/><path id="Path_1648" data-name="Path 1648" class="cls-13" d="M19.12,177.53h132a2.81,2.81,0,0,1,3,2.62v72.51a2.81,2.81,0,0,1-3,2.62h-132a2.81,2.81,0,0,1-3-2.62V180.15A2.81,2.81,0,0,1,19.12,177.53Z"/><path id="Path_1647-2" data-name="Path 1647" class="cls-12" d="M17,172.07H153.26a4.8,4.8,0,0,1,2,.39c.53.25.83.58.83.94v42.86c0,.35-.3.69-.83.94a4.8,4.8,0,0,1-2,.39H17c-1.56,0-2.82-.6-2.82-1.33V173.4C14.17,172.66,15.43,172.07,17,172.07Z"/><path id="Path_1648-2" data-name="Path 1648" class="cls-13" d="M19.12,175.25h132c1.65,0,3,.59,3,1.31v36.23c0,.72-1.33,1.31-3,1.31h-132c-1.64,0-3-.59-3-1.31V176.56C16.15,175.84,17.48,175.25,19.12,175.25Z"/><rect class="cls-14" x="60.1" y="191.75" width="83.38" height="10.39"/><circle class="cls-11" cx="39.8" cy="196.84" r="9.33"/><rect class="cls-14" x="60.1" y="233.23" width="83.38" height="10.39"/><circle class="cls-11" cx="39.8" cy="238.32" r="9.33"/></g></g></svg>